<?xml version="1.0" standalone="no"?>
<!DOCTYPE svg PUBLIC "-//W3C//DTD SVG 20010904//EN"
 "http://www.w3.org/TR/2001/REC-SVG-20010904/DTD/svg10.dtd">
<svg version="1.0" xmlns="http://www.w3.org/2000/svg"
 width="1080.000000pt" height="1080.000000pt" viewBox="0 0 1080.000000 1080.000000"
 preserveAspectRatio="xMidYMid meet">
<metadata>
Created by potrace 1.14, written by Peter Selinger 2001-2017
</metadata>
<g transform="translate(0.000000,1080.000000) scale(0.100000,-0.100000)"
fill="#000000" stroke="none">
<path d="M0 5400 l0 -5400 2680 0 2680 0 0 78 c0 42 -7 113 -15 157 -8 44 -14
113 -15 153 0 65 2 72 20 72 11 0 41 -20 68 -45 26 -25 52 -45 58 -45 6 0 22
9 34 20 13 12 31 19 39 18 21 -4 21 -39 5 -203 -7 -71 -14 -147 -14 -167 l0
-38 2115 0 2115 0 0 65 c0 39 -10 98 -25 150 -26 92 -24 136 11 229 12 31 15
97 14 340 0 166 -5 339 -11 386 -14 100 -7 175 21 249 19 49 22 79 24 310 2
166 7 272 16 301 8 30 10 69 5 115 -21 212 -10 606 17 589 4 -3 8 3 8 14 0 29
10 32 33 9 22 -22 22 -27 23 -367 1 -190 5 -385 8 -435 14 -187 23 -517 19
-695 -16 -813 -16 -780 -2 -834 13 -47 14 -149 4 -308 l-7 -118 436 0 436 0 0
2258 0 2257 -54 -85 c-30 -47 -59 -90 -64 -96 -6 -6 -61 -15 -123 -19 -62 -4
-118 -9 -125 -12 -9 -3 -22 16 -39 54 -14 32 -51 113 -83 180 -61 130 -64 131
-76 33 -4 -30 -10 -61 -14 -67 -4 -7 -44 -15 -90 -19 l-82 -7 -9 -36 c-6 -20
-15 -66 -21 -102 l-12 -67 -94 -7 c-108 -8 -108 -8 -102 -106 l3 -54 50 0 c28
0 69 2 93 6 l42 6 0 -41 c-1 -64 -26 -177 -41 -187 -8 -5 -30 -9 -50 -9 -20 0
-64 -3 -99 -7 l-62 -6 3 109 c2 76 -1 116 -10 133 -10 17 -15 20 -21 11 -9
-14 -22 16 -26 60 -4 50 30 140 53 140 8 0 12 4 9 8 -3 5 2 9 10 9 12 0 14 -9
10 -36 -3 -20 -7 -74 -10 -121 l-5 -85 14 45 c15 46 40 264 33 297 -3 15 -13
17 -87 14 l-83 -3 5 112 c2 61 7 113 9 115 2 2 69 9 149 15 79 6 267 20 417
31 163 13 277 18 283 12 5 -5 18 -47 30 -93 11 -47 24 -88 28 -93 4 -4 30 42
58 102 l51 110 64 3 63 3 3 393 2 394 -22 18 c-21 17 -21 19 -6 25 10 4 16 11
13 15 -3 5 -1 11 5 15 5 3 10 33 10 66 0 62 -7 70 -69 83 -9 2 -27 8 -41 14
l-25 11 30 2 c18 1 23 3 12 6 -18 5 -61 88 -52 102 2 5 -2 12 -11 15 -13 5
-14 9 -4 21 10 13 9 15 -10 15 -16 0 -20 4 -16 15 3 9 0 15 -9 15 -8 0 -15 -4
-15 -10 0 -5 -5 -10 -11 -10 -8 0 -8 5 1 15 7 8 25 15 40 15 15 0 33 7 40 15
7 8 21 15 32 15 10 0 17 4 13 10 -3 5 16 12 45 16 44 6 50 9 50 30 0 16 -6 24
-17 24 -17 1 -17 1 0 14 20 15 23 46 5 46 -7 0 -58 -7 -113 -15 -77 -11 -102
-11 -115 -2 -13 11 -13 10 -1 -5 15 -20 9 -23 -20 -7 -11 6 -17 15 -12 22 4 8
1 7 -9 -1 -9 -8 -15 -19 -12 -26 2 -6 -10 -23 -28 -36 -29 -20 -31 -21 -15 -3
10 12 20 29 21 38 1 9 9 20 16 25 11 7 11 11 1 24 -8 9 -9 16 -3 16 5 0 12 9
15 21 4 14 2 19 -8 15 -18 -6 -29 25 -13 36 10 6 10 10 -2 17 -9 6 -19 6 -27
0 -7 -6 -16 -8 -22 -5 -5 4 -11 0 -13 -8 -3 -12 -5 -12 -16 0 -10 11 -10 14 2
14 7 0 17 7 20 16 3 8 2 12 -4 9 -6 -3 -10 2 -10 13 0 29 -50 69 -88 70 -39 1
-86 44 -79 72 5 20 -18 54 -31 46 -5 -3 -7 -17 -4 -32 3 -19 7 -22 14 -12 5 8
6 2 2 -17 -9 -38 -14 -44 -14 -16 0 12 -7 24 -15 27 -8 3 -17 21 -21 39 -8 44
-38 75 -73 75 -16 0 -31 7 -35 15 -3 8 -12 15 -20 15 -7 0 -16 7 -20 15 -7 20
-25 19 -48 -2 -16 -15 -22 -15 -40 -4 -17 11 -22 10 -29 -1 -5 -7 -9 -20 -9
-28 0 -13 1 -13 11 0 8 12 9 10 4 -7 -3 -13 -2 -23 3 -23 6 0 8 -9 5 -20 -3
-11 -8 -20 -12 -20 -18 1 -37 28 -38 55 l-1 30 14 -34 c8 -18 17 -31 20 -29 9
10 -27 78 -41 78 -9 0 -12 -6 -9 -17 3 -10 -5 0 -17 22 -13 22 -22 46 -20 54
1 8 -2 10 -10 5 -9 -5 -10 -2 -6 9 3 9 3 17 -2 19 -4 2 -23 32 -43 68 -35 62
-61 93 -188 225 -74 77 -119 118 -202 182 -136 107 -180 125 -453 189 -84 20
-91 25 -99 69 -4 18 -12 35 -19 38 -7 2 5 6 26 8 23 3 52 -2 75 -12 42 -20 51
-17 31 7 -13 15 -10 15 21 -1 19 -10 54 -31 77 -46 23 -16 44 -25 47 -21 6 11
-3 23 -38 50 -16 12 -24 22 -19 22 12 0 103 -57 130 -83 26 -24 43 -16 22 10
-13 16 -11 16 16 -1 17 -10 42 -30 57 -43 42 -40 56 -23 17 22 l-33 40 39 -35
c22 -19 43 -41 48 -47 4 -7 19 -13 31 -13 14 0 30 -10 40 -25 9 -13 22 -22 30
-19 7 3 20 -2 29 -10 23 -23 40 -21 27 3 -8 17 -7 19 7 16 10 -2 27 -7 37 -11
15 -6 17 -4 11 7 -11 18 34 -19 59 -49 14 -18 21 -21 27 -10 6 10 11 9 23 -7
8 -11 19 -20 25 -20 6 0 30 -22 55 -50 47 -54 75 -56 36 -2 l-23 32 24 -20
c13 -11 36 -33 51 -48 15 -17 34 -27 45 -25 17 3 17 4 -2 24 -11 11 -27 29
-35 39 -12 16 -9 15 15 -3 33 -26 48 -13 19 19 -18 20 -6 27 13 8 6 -6 17 -9
23 -7 7 2 -1 10 -17 18 -24 12 -109 74 -123 90 -3 3 -25 21 -50 40 -25 19 -52
41 -60 49 -20 19 -179 93 -256 119 -146 50 -257 64 -454 60 -169 -3 -185 -2
-188 15 -2 10 3 17 12 17 21 0 20 17 -1 29 -10 6 -13 11 -7 11 5 0 16 -6 23
-12 11 -10 14 -10 18 -1 3 9 14 11 31 6 24 -6 26 -5 13 10 -14 18 -2 24 15 8
5 -5 22 -7 37 -4 27 5 27 6 11 24 -20 22 -7 25 21 6 28 -19 55 -28 55 -18 0 5
-19 21 -42 35 -55 32 -32 34 29 1 26 -13 49 -22 52 -19 3 3 -1 9 -9 14 -12 8
-12 10 -2 10 8 0 27 -9 43 -21 16 -11 35 -19 41 -17 7 3 -6 16 -27 31 -22 15
-35 27 -29 27 5 0 14 -4 20 -9 5 -5 20 -12 34 -15 l25 -7 -28 25 c-35 32 -32
32 29 0 49 -26 44 -18 -21 31 -27 21 -12 19 30 -5 36 -20 74 -29 45 -10 -25
16 13 13 46 -5 39 -20 45 -8 9 21 -37 30 -28 31 20 3 46 -28 55 -19 15 15 -37
31 -28 34 18 6 37 -23 57 -26 46 -7 -6 10 -4 10 7 0 18 -18 32 -16 25 2 -7 20
-3 19 36 -5 40 -24 52 -25 44 -4 -5 12 -2 15 11 9 10 -4 27 -9 38 -12 19 -4
19 -4 -1 14 -12 10 -36 26 -54 36 -42 22 -34 32 11 13 47 -19 127 -31 114 -17
-17 17 -205 72 -271 78 -119 11 -326 -47 -526 -147 -92 -47 -123 -58 -136 -51
-14 8 -14 11 -2 11 12 0 11 3 -2 11 -32 18 -19 39 40 66 62 29 73 39 65 60 -3
9 3 13 20 13 46 0 87 12 87 26 0 8 9 14 21 14 11 0 17 4 14 10 -5 9 4 12 60
23 17 3 16 6 -10 17 l-30 13 40 9 c22 5 65 7 95 5 33 -2 64 2 80 10 24 12 22
13 -30 14 -30 0 -64 4 -75 8 -18 7 -17 9 10 14 17 3 83 11 148 18 65 7 114 16
110 20 -8 7 -98 18 -157 19 -51 0 -24 8 69 20 122 15 131 21 55 35 l-65 12 35
10 c19 6 29 12 23 12 -22 2 -14 19 12 25 14 4 25 14 25 22 0 11 -6 14 -16 10
-8 -3 -45 -13 -80 -21 -36 -8 -98 -30 -137 -48 -107 -50 -369 -205 -467 -276
-44 -32 -45 -32 -48 -10 -2 12 0 24 6 28 5 3 14 16 21 29 13 24 1 30 -21 10
-44 -42 -50 -43 -28 -3 12 22 27 46 32 53 8 9 7 11 -8 5 -16 -6 -16 -4 4 24
11 16 48 58 82 93 68 71 72 90 7 40 l-42 -33 30 34 c81 92 82 93 58 80 -39
-20 -25 -4 39 46 34 26 69 54 78 61 16 14 12 14 -40 -5 -8 -3 12 19 45 50 42
39 57 59 50 66 -8 8 -28 0 -68 -25 -32 -20 -60 -34 -63 -31 -7 7 95 88 169
134 31 20 55 38 53 40 -2 2 -44 -17 -92 -42 -51 -27 -78 -37 -64 -25 14 12 62
54 107 93 77 67 103 99 51 63 -97 -67 -218 -142 -218 -135 0 4 8 14 19 21 49
34 164 152 152 156 -9 3 -6 12 11 30 13 14 16 22 8 17 -8 -4 -2 6 14 23 17 18
25 32 20 32 -6 0 -15 -5 -20 -10 -21 -21 -52 -19 -58 3 -6 22 -7 22 -29 -5
-13 -16 -28 -28 -35 -28 -7 0 -12 -5 -12 -11 0 -5 -4 -7 -10 -4 -10 6 -14 -7
-11 -32 3 -21 -9 -15 -19 10 -8 20 -9 18 -10 -13 -1 -31 -2 -33 -10 -12 -12
30 -15 28 -18 -10 -4 -56 -12 -71 -28 -57 -13 10 -13 8 -4 -16 9 -22 8 -26 -4
-22 -19 8 -26 -12 -13 -41 12 -26 2 -41 -15 -24 -17 17 -28 15 -21 -4 14 -37
-23 -5 -51 44 -17 28 -32 50 -34 48 -2 -3 13 -34 33 -71 21 -36 35 -69 31 -72
-7 -8 -7 -8 -40 45 -15 24 -30 42 -33 39 -3 -3 12 -33 32 -66 21 -34 36 -64
33 -66 -12 -12 -36 9 -66 58 -36 59 -42 58 -11 -3 12 -22 18 -47 15 -55 -3 -8
-1 -27 5 -42 9 -23 8 -25 -6 -13 -9 8 -23 27 -31 43 -9 16 -18 27 -20 24 -3
-3 12 -39 33 -80 35 -71 39 -98 14 -82 -6 3 -21 24 -32 47 -31 60 -33 40 -3
-26 14 -32 24 -60 21 -63 -11 -11 -30 11 -53 63 -13 30 -28 54 -34 54 -6 0 4
-28 21 -61 22 -44 29 -69 24 -88 -6 -23 -8 -24 -16 -8 -6 9 -7 21 -4 27 6 10
-33 55 -41 47 -2 -2 5 -29 17 -60 16 -41 18 -60 11 -74 -9 -16 -14 -10 -38 42
-33 71 -41 60 -19 -24 13 -50 14 -69 4 -101 -11 -37 -29 -55 -29 -29 0 5 -4 7
-10 4 -5 -3 -10 0 -10 7 0 8 -9 20 -20 28 -11 8 -20 18 -20 23 0 4 -9 17 -20
29 -11 12 -20 28 -20 35 0 7 -5 13 -11 13 -6 0 -8 7 -5 16 4 11 2 15 -7 11
-10 -4 -12 3 -9 24 3 22 0 29 -13 29 -11 0 -15 5 -12 14 3 8 -3 24 -14 37 -10
12 -19 28 -19 35 0 7 -7 20 -16 28 -8 9 -13 20 -9 25 3 6 -2 14 -11 19 -9 5
-16 13 -16 18 0 5 -4 19 -9 32 -5 13 -9 30 -9 38 0 8 -4 12 -10 9 -6 -3 -10 1
-10 10 0 16 -24 59 -46 82 -8 9 -16 6 -30 -10 -10 -12 -17 -28 -16 -36 2 -7
-1 -10 -7 -6 -7 3 -11 -2 -11 -14 0 -31 -15 -33 -44 -6 -29 27 -42 32 -30 13
5 -8 0 -9 -14 -6 -12 4 -20 2 -16 -3 3 -5 -1 -9 -8 -9 -7 -1 3 -10 22 -21 l35
-20 -32 6 c-43 9 -42 0 5 -25 20 -11 30 -20 22 -19 -39 3 -80 -2 -80 -10 0 -5
12 -14 28 -19 l27 -10 -25 -2 c-23 -2 -22 -3 10 -17 23 -10 30 -17 20 -20 -42
-13 -42 -12 -24 -30 17 -17 17 -18 0 -21 -31 -6 6 -42 -1563 1519 -520 517
-603 603 -592 614 21 20 516 31 749 16 216 -13 556 -61 655 -91 17 -5 46 -11
66 -13 20 -2 41 -7 46 -10 6 -4 28 -9 49 -12 47 -6 75 -14 229 -60 66 -20 145
-43 175 -52 55 -15 214 -89 300 -139 25 -14 97 -45 160 -69 163 -60 327 -137
460 -215 246 -146 306 -182 341 -208 20 -15 72 -51 115 -81 219 -151 384 -290
604 -511 105 -105 290 -317 345 -394 11 -16 35 -47 54 -70 18 -22 56 -75 84
-116 28 -41 54 -76 59 -78 4 -2 8 -8 8 -13 0 -6 17 -33 38 -62 40 -54 130
-199 195 -315 42 -74 247 -488 247 -500 1 -4 9 -25 20 -47 11 -22 19 -46 20
-53 0 -7 9 -32 20 -56 10 -24 29 -74 41 -112 12 -38 26 -73 31 -79 4 -5 8 833
8 1863 l0 1872 -5400 0 -5400 0 0 -5400z m5200 4931 c0 -22 -82 -105 -1491
-1503 -223 -222 -537 -532 -696 -689 l-290 -287 -99 -22 c-234 -53 -417 -130
-609 -254 -99 -65 -219 -153 -271 -201 -6 -5 -32 -28 -57 -49 -26 -22 -47 -43
-47 -47 0 -13 69 -7 87 8 17 13 16 14 -10 8 -43 -9 -23 12 25 27 22 6 45 20
52 30 6 10 16 18 22 18 7 0 14 8 16 18 3 12 22 23 51 32 26 7 51 18 57 25 6 7
38 16 72 20 39 5 56 10 47 16 -8 4 -25 5 -38 2 -15 -4 -22 -2 -18 4 10 16 69
24 173 24 52 0 94 4 94 9 0 12 -26 19 -87 22 -29 2 -53 6 -53 10 0 13 69 20
174 16 58 -2 106 0 106 4 0 5 -10 8 -22 9 -13 0 -32 4 -43 9 -14 6 -2 9 43 9
34 1 62 -2 62 -6 -1 -5 -38 -47 -84 -96 l-83 -87 -194 -64 c-237 -78 -391
-144 -472 -204 -71 -51 -178 -161 -204 -209 -23 -44 -37 -42 -28 5 6 33 15 48
50 87 6 7 24 27 40 46 17 19 47 47 68 63 20 16 37 34 37 40 0 7 16 18 35 25
27 9 34 17 31 34 -1 12 -9 23 -17 25 -14 2 -202 -184 -226 -223 -11 -18 -12
-17 -9 10 7 71 101 222 158 251 15 8 28 20 28 27 0 18 46 59 97 87 45 25 54
40 26 41 -10 0 0 8 22 18 l40 18 -34 8 c-25 5 -30 10 -20 16 8 5 24 9 37 9 13
0 22 6 22 15 0 8 11 17 25 21 31 8 32 21 3 27 -17 3 -11 6 20 12 29 5 39 11
30 16 -9 6 -3 10 19 15 39 8 34 24 -8 24 -57 0 -28 18 41 25 39 4 70 11 70 16
0 5 -32 9 -72 9 -126 0 -49 24 97 30 l30 2 -35 13 c-43 16 -36 18 98 24 49 2
8 21 -46 21 -41 0 -53 3 -42 10 8 5 37 10 63 10 30 0 46 4 42 10 -3 6 -27 10
-53 10 -34 0 -43 3 -32 10 8 5 41 10 73 10 31 0 57 4 57 9 0 4 -17 8 -37 8
-114 1 -125 10 -22 19 77 7 113 23 54 24 -58 1 -24 17 50 24 33 3 61 5 63 6 1
0 2 5 2 10 0 6 -22 10 -49 10 -28 0 -53 5 -56 10 -4 6 13 10 42 11 45 0 101
15 78 20 -5 1 -14 3 -20 4 -5 2 -20 3 -32 4 -42 2 -23 17 24 20 26 1 55 9 64
17 8 8 26 14 38 14 12 0 19 4 16 10 -3 6 -15 10 -26 10 -11 0 -17 5 -14 10 3
6 30 10 58 11 29 0 61 4 72 9 18 7 16 9 -13 15 -41 10 -38 12 28 25 95 18 85
32 -20 25 -87 -5 -93 -4 -65 9 17 8 65 24 108 37 72 21 96 34 85 44 -6 6 -252
-60 -338 -91 -93 -33 -178 -92 -299 -209 -132 -128 -315 -359 -336 -426 -4
-10 -11 -19 -16 -19 -5 0 -9 -4 -9 -9 0 -11 -96 -172 -112 -186 -5 -5 4 16 22
47 17 32 28 63 24 69 -5 8 -3 9 6 4 8 -5 11 -3 8 6 -3 8 1 20 9 27 7 8 11 18
8 23 -4 5 -2 9 2 9 5 0 21 29 37 65 15 36 32 65 37 65 5 0 8 3 7 8 -1 4 4 20
10 35 7 16 12 32 12 36 0 5 7 14 15 21 9 8 13 21 10 34 -5 17 -4 18 4 6 9 -13
11 -13 11 3 0 9 4 17 10 17 5 0 7 7 4 15 -4 8 -1 15 5 15 6 0 11 7 11 15 0 8
5 15 10 15 6 0 10 7 10 16 0 8 4 12 10 9 6 -3 7 1 4 9 -3 9 -2 16 2 16 5 0 18
20 29 45 11 25 23 45 26 45 4 0 6 8 5 18 -3 18 60 60 104 69 34 6 37 11 16 26
-17 12 -13 15 35 34 66 25 80 49 23 39 -22 -4 -49 -14 -62 -22 -29 -19 -29 0
0 20 12 9 18 16 13 16 -11 0 46 54 100 96 40 30 43 40 14 49 -20 7 -20 7 2 26
12 10 19 19 15 19 -4 0 -2 6 4 13 52 62 80 100 80 106 0 3 10 17 23 31 13 14
62 71 110 128 48 57 97 114 110 126 12 13 56 59 98 102 42 43 125 124 184 179
60 55 119 109 131 121 12 12 28 24 36 27 7 3 59 43 114 89 137 112 331 255
374 275 8 3 17 9 20 12 16 19 292 191 306 191 4 0 15 6 23 14 31 28 326 171
541 263 204 87 579 202 850 261 59 13 120 14 120 3z m1127 -1046 c366 -363
752 -745 859 -850 107 -104 194 -194 194 -200 0 -5 14 -18 31 -28 17 -9 29
-23 26 -30 -2 -6 10 -19 26 -27 39 -19 43 -34 15 -48 -21 -10 -19 -11 17 -11
35 -1 48 -8 85 -46 24 -25 41 -45 36 -45 -4 0 -60 18 -125 39 -211 72 -328 83
-536 53 -44 -6 -38 -8 55 -12 l105 -5 -70 -22 c-38 -12 -90 -27 -114 -33 -67
-18 -44 -20 39 -4 41 8 88 17 104 20 16 2 32 7 36 9 16 10 89 22 84 14 -3 -5
-11 -9 -17 -9 -19 0 -134 -58 -117 -59 8 0 51 8 94 19 44 11 80 19 82 17 2 -1
-50 -30 -114 -64 -111 -59 -169 -99 -158 -110 2 -3 20 6 38 20 18 14 85 50
148 81 l115 57 -50 -45 c-27 -25 -53 -45 -57 -46 -5 0 -8 -7 -8 -16 0 -11 14
-5 48 23 26 21 56 45 67 53 l20 15 -20 -24 c-11 -14 -35 -40 -54 -60 -18 -19
-44 -52 -57 -73 -13 -21 -31 -38 -39 -38 -35 0 -262 -97 -251 -107 2 -2 38 12
79 32 42 19 81 35 87 35 11 0 -27 -35 -98 -90 -42 -34 -16 -34 42 -1 74 41 90
39 41 -5 -50 -44 -24 -37 53 14 82 55 93 59 45 17 -24 -21 -43 -44 -43 -52 0
-10 6 -8 23 8 12 11 42 34 67 51 l45 30 -52 -50 c-29 -28 -53 -53 -53 -56 0
-11 16 -6 36 12 34 31 104 84 104 79 0 -14 -89 -97 -113 -106 -47 -18 -65 -14
-70 17 -4 26 -4 26 -6 -5 -1 -31 -2 -32 -117 -68 -150 -47 -275 -102 -355
-155 -60 -40 -229 -204 -229 -222 0 -18 22 -6 63 35 71 69 84 75 44 21 -60
-83 -47 -81 37 6 25 25 58 61 75 80 17 19 31 30 31 23 0 -6 -4 -13 -8 -15 -10
-4 -90 -121 -99 -145 -9 -24 45 40 87 102 33 49 60 81 60 72 0 -3 -13 -31 -30
-62 -30 -56 -39 -92 -21 -80 5 3 12 19 16 35 4 17 11 30 16 30 5 0 9 5 9 10 0
15 62 110 94 144 41 45 30 10 -19 -61 -25 -35 -45 -68 -45 -73 0 -6 -4 -10
-10 -10 -5 0 -10 -6 -10 -12 0 -7 16 5 35 27 l35 40 -40 -80 c-22 -44 -40 -89
-40 -100 0 -11 13 8 29 42 36 75 101 174 101 152 0 -8 -8 -24 -17 -35 -24 -27
-43 -61 -43 -76 0 -17 13 -1 44 55 14 26 26 55 26 64 0 9 3 13 6 10 4 -4 15 3
25 15 28 31 23 10 -17 -76 -41 -89 -42 -122 -1 -48 15 28 47 76 70 109 24 32
47 67 51 78 5 11 10 15 13 9 2 -6 -7 -36 -21 -65 -35 -78 -58 -155 -53 -176 4
-20 4 -20 27 52 17 58 79 182 98 197 13 11 14 10 5 -7 -15 -30 -25 -75 -16
-75 5 0 17 12 27 28 10 16 15 19 11 7 -14 -38 -18 -172 -6 -179 7 -5 11 3 11
21 0 29 35 161 45 172 13 12 -8 -195 -22 -215 -13 -21 -98 -47 -198 -61 -72
-9 -61 -20 18 -17 86 4 81 0 -65 -57 -96 -38 -131 -59 -97 -59 19 0 6 -130
-14 -142 -16 -8 -17 -43 -17 -399 l0 -389 -25 -10 -25 -10 0 -885 c0 -487 3
-885 6 -885 3 0 31 22 61 50 119 109 267 145 413 101 58 -18 81 -32 126 -75
30 -28 54 -57 54 -63 0 -6 -36 -43 -80 -83 l-81 -73 -22 20 c-79 73 -182 70
-269 -6 -37 -32 -78 -106 -78 -140 0 -21 -25 -31 -85 -31 -22 0 -57 -3 -79 -7
l-38 -6 5 -46 c3 -26 11 -60 18 -75 l13 -28 96 7 c52 3 98 11 101 17 4 7 14 6
29 -2 66 -36 155 -28 231 19 l47 29 25 -26 c42 -46 87 -114 87 -132 0 -23 -84
-76 -168 -107 -49 -18 -89 -25 -152 -26 -101 -2 -151 11 -220 58 -33 22 -50
29 -46 19 3 -8 6 -72 6 -141 l0 -126 98 7 c53 3 143 9 199 13 l101 6 -5 -44
c-3 -24 -11 -75 -17 -114 l-11 -70 -85 -8 c-210 -19 -189 -10 -205 -81 l-6
-28 111 7 112 7 -7 -48 c-4 -27 -10 -51 -12 -54 -3 -3 -94 -12 -203 -20 -110
-9 -203 -19 -206 -23 -4 -4 -8 -40 -8 -80 -1 -71 -1 -72 24 -71 60 3 166 4
180 3 8 -1 70 1 138 6 142 8 131 20 106 -117 -14 -78 -19 -88 -38 -88 -11 -1
-120 -9 -241 -19 -121 -10 -224 -16 -229 -13 -5 3 -6 43 -2 90 5 72 4 88 -10
104 -31 33 -41 22 -48 -52 -4 -38 -13 -89 -20 -112 l-12 -43 -219 -17 c-121
-9 -233 -17 -249 -17 l-29 -1 6 88 c4 48 15 132 26 187 12 58 25 188 31 308 6
115 13 214 16 222 3 8 31 15 72 19 37 4 93 9 125 12 55 6 57 5 57 -18 0 -40
-34 -240 -65 -394 -4 -19 -14 -22 -97 -29 -52 -4 -96 -12 -100 -18 -4 -7 -8
-43 -8 -80 l0 -68 183 6 c100 3 191 7 202 9 11 3 22 5 25 5 3 1 2 54 -1 118
-4 65 -10 186 -13 268 -12 324 -19 430 -27 441 -5 6 -6 14 -2 18 4 4 6 71 4
150 -2 104 4 192 20 325 l23 182 -45 39 c-24 22 -48 38 -54 36 -5 -1 -14 -29
-18 -62 -5 -32 -19 -115 -33 -183 -13 -68 -24 -134 -24 -147 0 -20 -6 -23 -52
-28 -52 -6 -556 -46 -578 -46 -7 0 -10 -25 -8 -77 2 -56 7 -77 16 -76 6 2 12
-2 12 -8 0 -8 4 -8 15 1 8 7 34 11 60 8 25 -2 45 0 45 3 0 4 9 5 21 2 19 -5
21 -11 15 -57 -4 -28 -12 -77 -18 -108 -12 -65 -5 -62 -150 -73 l-78 -6 0 74
c0 41 9 118 21 173 24 116 36 247 35 396 -1 60 2 108 7 108 4 0 7 16 7 35 0
38 3 41 65 48 45 6 35 16 243 -242 51 -64 97 -117 101 -119 13 -4 19 140 14
358 -4 215 -7 240 -28 240 -11 0 -14 37 -17 214 -3 194 -5 216 -22 235 -18 20
-18 22 -2 34 14 11 16 30 14 157 l-3 145 -32 3 c-24 2 -33 9 -35 25 -3 19 -10
22 -53 25 -27 1 -59 7 -70 12 -11 5 -33 11 -49 12 l-29 3 -2 95 c-1 52 -2 206
-3 343 -1 157 -6 247 -12 247 -6 0 -10 -76 -10 -208 0 -115 -3 -270 -7 -345
l-6 -137 -104 0 -103 0 -1 298 c-1 163 -5 441 -8 617 l-7 320 -5 -495 c-2
-272 -4 -550 -3 -617 l1 -123 -34 0 c-30 0 -33 -3 -33 -29 l0 -29 -94 -7 c-57
-4 -96 -11 -98 -18 -2 -7 -5 -86 -6 -177 -1 -91 -5 -183 -8 -205 -4 -22 -7
-117 -8 -212 -1 -153 -3 -174 -19 -185 -16 -12 -17 -28 -15 -148 l3 -135 55 2
c112 5 208 -44 252 -131 17 -34 20 -52 15 -110 -7 -79 -48 -176 -75 -176 -31
0 -426 -31 -460 -36 l-33 -5 3 -77 3 -77 55 4 c111 9 124 7 128 -13 2 -10 -4
-61 -13 -112 l-18 -92 -86 -7 c-47 -3 -96 -8 -108 -11 -22 -4 -23 -2 -23 74 0
47 -5 83 -12 90 -9 9 -9 15 0 24 7 7 12 23 12 36 0 13 4 21 9 18 19 -12 39
132 47 352 l6 169 -30 22 c-36 25 -34 29 -53 -102 -9 -63 -17 -91 -29 -97 -9
-5 -69 -12 -133 -16 -65 -4 -121 -12 -126 -18 -5 -6 -12 -28 -16 -50 l-8 -38
69 6 c38 3 87 7 109 8 l40 3 -3 -45 c-2 -25 -7 -49 -12 -54 -5 -5 -96 -15
-202 -24 -106 -8 -199 -19 -205 -24 -22 -18 -15 -167 7 -153 4 2 97 7 207 10
110 2 208 7 217 11 9 4 18 0 21 -9 7 -17 -21 -187 -32 -198 -7 -6 -401 -39
-465 -39 -27 0 -28 1 -28 60 0 33 11 115 24 183 17 83 28 190 36 335 6 117 13
219 16 227 3 8 15 15 27 17 21 3 22 8 22 113 0 199 -17 1500 -19 1503 -2 2
-455 4 -593 2 l-33 0 0 -385 c0 -343 -2 -386 -16 -392 -13 -5 -13 -7 -2 -14
10 -7 9 -9 -4 -9 -10 0 -18 4 -18 8 0 4 -13 15 -28 24 l-29 17 1 131 c1 71 -3
130 -7 130 -5 0 -7 -57 -6 -127 2 -100 0 -128 -11 -131 -7 -3 -29 -20 -49 -38
-35 -32 -36 -33 -32 -103 l3 -70 -79 -3 -78 -3 -3 -54 c-3 -43 -7 -54 -23 -58
-10 -3 -20 -6 -21 -7 -1 0 -5 -122 -8 -271 -5 -256 -6 -268 -21 -240 -33 61
-113 200 -119 205 -6 6 -32 53 -72 129 l-28 54 1 546 c1 524 1 544 19 522 23
-32 41 -20 30 19 -15 51 7 23 26 -33 22 -69 24 -71 40 -50 8 11 13 13 14 6 0
-7 9 -13 20 -13 10 0 35 -14 55 -31 78 -69 49 -5 -95 211 -76 115 -253 350
-304 407 -6 6 -21 24 -33 40 -12 15 -47 55 -77 88 -62 67 -100 156 -76 178 10
9 12 8 7 -5 -8 -23 20 -91 36 -85 13 4 14 24 3 72 -6 28 -6 29 4 5 6 -14 16
-47 21 -75 15 -74 29 -105 49 -105 9 0 22 -10 28 -22 9 -19 10 -11 7 39 -2 35
-6 68 -10 75 -4 7 1 4 9 -6 9 -11 16 -30 16 -43 0 -25 10 -29 28 -11 9 9 12 9
12 0 0 -7 7 -12 15 -12 9 0 18 -7 21 -15 4 -9 13 -14 21 -13 9 2 24 -21 42
-64 55 -130 112 -173 71 -53 -25 74 -26 89 -1 82 13 -3 21 1 24 15 3 11 15 22
26 25 26 7 26 11 -1 40 -16 17 -21 34 -20 60 2 22 -3 42 -14 54 -16 18 -16 20
2 40 18 20 18 21 -1 35 -24 18 -13 21 41 8 69 -15 89 -16 79 -6 -5 6 -55 20
-110 31 -124 26 -173 38 -160 41 20 4 121 3 175 -1 59 -4 79 11 32 23 -31 9
-251 50 -269 51 -7 0 -10 3 -8 7 2 3 22 5 44 3 23 -2 41 1 41 7 0 6 -12 10
-27 10 -16 0 -35 5 -43 10 -11 7 -1 10 34 10 70 0 46 21 -26 23 -40 1 -54 5
-51 14 3 7 0 13 -7 13 -6 0 -8 5 -5 10 3 6 0 10 -9 10 -37 0 -176 231 -176
293 0 32 15 12 89 -120 39 -69 73 -119 84 -121 23 -5 22 19 -3 51 -22 28 -86
192 -95 242 -3 17 -1 37 5 45 9 13 13 12 26 -5 9 -11 30 -49 46 -85 17 -36 45
-96 63 -135 17 -38 40 -92 50 -120 19 -54 49 -93 58 -78 4 6 -9 41 -27 79 -47
96 -98 309 -101 417 0 18 21 0 31 -28 54 -142 122 -306 135 -326 31 -45 32 -9
2 68 -43 110 -70 200 -78 257 -9 66 10 58 42 -19 14 -33 42 -96 63 -140 20
-44 54 -131 75 -192 20 -62 41 -113 46 -113 14 0 11 20 -11 81 -40 115 -96
439 -80 468 7 13 70 -137 130 -311 23 -66 40 -87 40 -50 0 9 -14 50 -30 90
-17 39 -35 98 -41 129 -6 32 -12 66 -15 76 -3 9 -2 17 3 17 10 0 30 -46 92
-204 26 -66 52 -121 59 -124 19 -6 14 26 -18 121 -16 49 -32 112 -35 140 l-5
52 16 -35 c35 -75 65 -176 79 -263 26 -160 33 -196 44 -214 9 -17 10 -17 17 0
7 20 3 60 -21 212 -24 144 -28 193 -17 175 11 -18 64 -208 64 -230 0 -28 31
-130 39 -130 11 0 11 -2 -2 40 -12 39 -24 100 -39 205 -5 39 -12 84 -15 101
-5 26 -2 32 16 37 18 5 35 -7 84 -60 38 -42 66 -64 73 -59 18 11 15 19 -24 65
-20 23 -34 44 -32 46 2 3 49 -34 103 -80 90 -78 137 -106 151 -92 3 3 -20 30
-53 60 -32 31 -55 58 -53 61 3 3 55 -28 115 -69 61 -41 113 -75 118 -75 19 0
2 23 -58 81 -36 34 -63 64 -61 67 3 2 56 -26 118 -64 62 -37 116 -69 120 -71
4 -2 9 1 12 5 3 5 -13 22 -34 38 -56 41 -49 48 15 17 30 -15 58 -23 62 -19 4
4 0 12 -10 17 -9 6 -17 15 -17 22 0 7 -91 63 -201 126 -192 109 -205 115 -342
151 -167 44 -382 86 -481 96 l-70 6 129 127 128 127 56 -2 c31 -1 84 -9 117
-18 71 -18 84 -20 84 -7 0 4 -25 16 -55 26 -78 24 -68 35 18 19 39 -8 91 -17
115 -21 64 -9 52 13 -18 33 -81 23 -88 37 -14 29 53 -5 57 -5 41 8 -10 8 -38
18 -63 22 -24 3 -42 10 -39 14 5 9 -42 21 -81 21 -13 0 -24 4 -24 8 0 7 852
856 1957 1950 l327 323 94 -93 c53 -51 394 -390 759 -753z m967 -1337 c-16
-18 -31 -35 -34 -38 -71 -76 -75 -99 -6 -33 33 31 37 33 31 13 l-7 -23 33 24
c19 13 36 27 37 31 2 4 9 8 15 8 6 0 1 -10 -11 -23 -26 -28 -28 -41 -4 -29 39
20 43 0 7 -33 -31 -29 -45 -34 -98 -38 -34 -2 -73 -1 -86 3 -23 5 -20 10 57
88 81 81 124 113 66 50z m188 -50 c-18 -18 -15 -31 6 -23 23 9 83 12 88 4 2
-4 21 -3 41 2 52 12 55 11 49 -9 -5 -15 0 -17 39 -14 34 3 45 1 43 -9 -2 -8 8
-15 22 -17 22 -4 135 -101 126 -109 -2 -2 -43 16 -92 39 l-89 43 -170 2 c-93
1 -178 3 -188 3 -15 0 -13 5 11 25 27 23 111 75 122 75 2 0 -1 -5 -8 -12z
m-402 -182 c0 -3 -4 -8 -10 -11 -5 -3 -10 -1 -10 4 0 6 5 11 10 11 6 0 10 -2
10 -4z m400 -35 c-11 -21 -30 -27 -43 -14 -4 3 5 15 20 24 32 21 39 18 23 -10z
m-241 -20 c-19 -26 -49 -42 -49 -27 0 8 64 65 68 61 2 -2 -6 -17 -19 -34z m55
27 c-16 -25 -39 -48 -48 -48 -5 0 3 14 19 30 30 31 41 38 29 18z m26 -17 c-6
-12 -18 -21 -27 -21 -13 0 -12 5 7 25 27 29 37 27 20 -4z m89 -2 c-19 -11 -24
-3 -8 14 8 9 16 11 18 5 2 -6 -3 -14 -10 -19z m241 -9 c0 -11 -7 -20 -15 -20
-17 0 -18 2 -9 24 9 23 24 20 24 -4z m-103 4 c-3 -3 -12 -4 -19 -1 -8 3 -5 6
6 6 11 1 17 -2 13 -5z m53 -4 c0 -5 -5 -10 -11 -10 -5 0 -7 5 -4 10 3 6 8 10
11 10 2 0 4 -4 4 -10z m120 -20 c0 -19 -11 -26 -23 -14 -8 8 3 34 14 34 5 0 9
-9 9 -20z m-5225 -1 c5 -7 -8 -8 -41 -3 -64 9 -68 14 -11 14 25 0 49 -5 52
-11z m5270 -8 c3 -5 1 -12 -5 -16 -5 -3 -10 1 -10 9 0 18 6 21 15 7z m148 -26
c-10 -13 -25 -24 -33 -24 -10 0 -5 8 13 24 36 32 43 32 20 0z m73 -21 c-3 -9
-6 -18 -6 -20 0 -2 -10 -4 -22 -4 -20 0 -21 1 -3 20 22 24 40 26 31 4z m60
-24 c8 0 14 -4 14 -10 0 -5 9 -10 20 -10 11 0 20 -5 20 -11 0 -6 -9 -9 -20 -6
-40 10 -151 -13 -223 -48 -125 -59 -221 -162 -340 -366 -31 -53 -65 -107 -76
-120 l-20 -24 -1 47 0 47 -67 3 -68 3 -2 80 c-2 79 -2 80 12 40 7 -22 14 -47
14 -56 1 -8 7 -23 14 -34 12 -15 13 -6 10 66 -1 46 0 78 3 71 8 -18 24 -5 25
21 0 21 1 21 9 2 8 -20 11 -17 22 25 3 8 12 -1 24 -25 23 -46 50 -62 40 -22
-7 30 1 57 18 57 6 0 18 9 25 19 8 11 20 17 28 14 9 -4 13 3 13 22 0 24 2 26
16 14 13 -11 19 -8 39 17 14 16 24 23 25 17 0 -20 27 -15 44 8 8 12 19 18 26
14 11 -7 76 52 68 61 -2 2 -33 -4 -68 -12 -36 -9 -103 -20 -150 -24 -97 -9
-209 -33 -218 -46 -4 -5 -24 -17 -44 -26 -21 -10 -38 -22 -38 -26 0 -5 -11
-14 -25 -20 -34 -15 -39 -1 -25 62 12 56 68 182 76 173 3 -3 -3 -34 -14 -69
-29 -89 -36 -128 -23 -128 6 0 11 7 11 16 0 19 50 104 86 147 29 35 31 21 4
-25 -12 -21 -16 -38 -11 -47 7 -11 10 -9 15 6 5 16 96 112 96 101 0 -2 -11
-25 -25 -52 -14 -27 -23 -51 -21 -54 3 -2 28 19 56 47 28 28 55 51 60 51 5 0
7 -14 3 -30 l-6 -31 54 36 c42 28 55 32 57 20 4 -18 10 -18 42 0 36 21 49 19
42 -7 l-5 -22 38 24 c31 19 37 21 32 7 -7 -19 8 -22 46 -8 21 8 26 6 30 -10 5
-18 7 -18 42 -3 20 8 44 13 53 10 9 -2 35 6 57 18 22 12 42 18 43 14 2 -4 10
-8 18 -8z m-871 -96 c-8 -38 -15 -90 -15 -116 0 -45 -2 -49 -37 -65 -21 -9
-42 -19 -47 -21 -14 -7 1 136 20 198 12 37 19 49 22 35 7 -36 17 -35 42 5 13
21 25 38 27 36 1 -1 -4 -34 -12 -72z m1024 -55 c11 6 21 2 33 -14 17 -22 16
-22 -54 -58 -39 -21 -72 -36 -73 -34 -1 1 -14 19 -29 40 -32 42 -22 50 14 12
42 -45 59 -31 35 28 -4 10 -3 17 4 17 6 0 11 -4 11 -10 0 -5 5 -10 10 -10 6 0
10 10 10 22 0 17 3 19 12 10 7 -7 17 -8 27 -3z m-198 -149 c5 0 9 -4 9 -10 0
-5 -4 -10 -8 -10 -11 0 -142 132 -155 156 -6 11 25 -16 68 -58 43 -43 82 -78
86 -78z m28 52 c34 -30 41 -40 28 -45 -11 -4 -30 12 -63 50 -51 60 -37 58 35
-5z m-59 -103 c0 -16 -23 2 -75 61 l-50 55 63 -54 c34 -29 62 -57 62 -62z
m-5984 15 c-7 -22 -17 -58 -20 -81 -4 -23 -14 -49 -22 -60 -14 -17 -15 -16 -9
12 8 40 57 176 62 172 2 -2 -3 -22 -11 -43z m6378 -1 c9 4 9 -14 -2 -74 -14
-75 -9 -200 6 -184 4 3 19 52 34 108 14 56 27 90 27 75 1 -34 16 -37 25 -5 l7
22 11 -22 c6 -13 15 -23 19 -23 5 0 18 -10 29 -22 19 -20 20 -30 14 -85 -7
-68 2 -153 16 -153 5 0 14 26 20 58 16 77 33 102 27 40 -5 -57 7 -84 22 -48
l10 25 1 -25 c1 -25 1 -25 16 -5 14 18 15 15 9 -45 -16 -178 -13 -167 -47
-174 -17 -3 -41 -6 -54 -6 -13 0 -24 -4 -24 -9 0 -12 -54 -24 -107 -23 -74 1
-73 11 -74 -460 -1 -384 -2 -406 -14 -318 -26 186 -49 645 -41 815 16 341 29
532 39 550 10 19 11 19 15 2 2 -10 9 -16 16 -14z m617 -39 c-14 -46 -20 -55
-26 -40 -5 12 0 34 14 63 29 61 35 50 12 -23z m-745 -77 c-8 -56 -18 -129 -21
-162 -3 -33 -10 -96 -15 -140 -22 -189 -32 -629 -19 -820 4 -60 10 -155 13
-210 3 -55 9 -158 13 -230 12 -210 11 -219 -12 -223 -54 -8 -64 -14 -73 -42
-10 -28 -14 -30 -64 -30 -94 -1 -88 27 -88 -418 0 -241 -4 -392 -10 -394 -5
-1 4 -23 20 -47 17 -24 34 -60 39 -80 15 -58 23 -165 13 -180 -6 -8 -36 -15
-78 -18 -100 -6 -114 -10 -114 -33 0 -11 -9 -45 -19 -75 -23 -66 -32 -61 102
-51 70 5 77 4 77 -12 0 -30 -60 -111 -112 -152 -231 -184 -563 -128 -634 106
-20 69 -18 215 6 307 31 124 112 228 216 279 30 15 40 26 37 38 -7 26 15 35
37 15 13 -12 27 -15 54 -10 l36 7 0 129 c0 103 -3 130 -15 136 -12 7 -17 74
-30 388 -17 412 -21 437 -74 450 -52 13 -51 4 -51 361 0 220 3 334 10 334 6 0
8 11 4 26 -5 19 -4 25 5 20 6 -4 11 -17 11 -29 0 -12 5 -29 10 -37 12 -18 13
-14 12 80 -1 48 1 59 7 40 5 -14 9 -40 10 -57 1 -18 6 -33 11 -33 6 0 10 38
10 93 0 114 15 146 23 50 6 -67 36 -160 44 -136 3 7 0 44 -6 82 -6 39 -11 87
-10 108 1 35 2 33 14 -20 23 -106 46 -95 26 12 -5 24 -5 55 -1 70 6 19 9 21 9
7 1 -24 17 -11 24 19 3 14 5 11 6 -10 2 -38 37 -179 52 -206 18 -35 21 -14 6
47 -14 53 -33 276 -20 229 3 -11 9 -24 13 -30 4 -5 23 -47 40 -92 18 -46 37
-83 41 -83 11 0 11 6 0 50 -5 19 -12 58 -15 85 l-7 50 20 -25 21 -25 -1 30 c0
17 -3 60 -7 97 -8 66 -1 83 12 32 8 -32 75 -138 82 -131 3 3 -6 40 -19 84 -14
43 -28 94 -32 113 l-8 35 48 -52 c26 -29 51 -53 56 -53 4 0 0 21 -11 48 -17
40 -17 43 -2 22 56 -80 87 -92 59 -23 -8 21 -20 56 -26 77 l-10 39 29 -34 c16
-19 29 -37 30 -41 1 -18 28 -6 33 13 5 17 11 20 31 15 29 -7 33 3 14 37 -10
20 -10 21 5 9 27 -23 37 -5 22 39 -9 25 -10 37 -3 33 7 -5 9 2 6 20 -3 14 -1
26 3 26 5 0 9 9 9 19 0 11 7 26 15 35 8 8 18 29 22 47 7 35 45 87 51 70 2 -6
-3 -57 -12 -114z m-476 103 c0 -5 6 -7 13 -5 6 2 26 -18 44 -45 28 -43 30 -50
17 -61 -13 -11 -18 -10 -25 1 -52 87 -69 120 -60 120 6 0 11 -4 11 -10z m1172
-12 c-7 -7 -12 -8 -12 -2 0 14 12 26 19 19 2 -3 -1 -11 -7 -17z m98 -63 c-10
-56 -14 -62 -26 -50 -13 12 -12 22 6 72 11 31 20 60 21 63 0 3 3 -1 6 -8 3 -7
0 -42 -7 -77z m-1140 12 c0 -18 -22 -1 -42 33 l-22 35 32 -29 c18 -17 32 -34
32 -39z m-5994 21 c-21 -104 -29 -128 -42 -128 -20 0 -17 15 25 123 13 33 23
36 17 5z m5331 -42 c-4 -9 -16 -16 -27 -16 -15 0 -20 6 -19 28 1 17 3 20 6 9
6 -23 23 -12 24 16 l0 22 11 -22 c6 -12 8 -29 5 -37z m461 1 c16 -29 37 -59
46 -66 32 -27 30 1 -3 62 -41 75 -35 71 19 -11 40 -62 40 -62 20 -85 -10 -12
-28 -32 -39 -45 -18 -22 -20 -22 -29 -5 -13 24 -52 165 -52 186 0 26 6 21 38
-36z m1476 -4 c-3 -32 -10 -82 -16 -111 -8 -43 -12 -51 -23 -42 -9 8 -12 23
-9 43 6 36 45 167 50 167 1 0 0 -26 -2 -57z m-1904 15 c0 -23 -3 -29 -11 -21
-6 6 -8 20 -4 32 9 30 15 26 15 -11z m-5449 -55 c-5 -28 -12 -39 -27 -41 l-21
-3 21 45 c24 52 35 52 27 -1z m7266 25 c-3 -8 -6 -5 -6 6 -1 11 2 17 5 13 3
-3 4 -12 1 -19z m157 -74 c-9 -44 -16 -94 -15 -111 1 -19 -3 -33 -10 -33 -6 0
-9 7 -5 15 3 8 0 14 -7 12 -19 -3 -9 69 19 126 13 28 24 57 24 66 0 8 3 12 6
9 3 -3 -2 -41 -12 -84z m-6767 27 c14 -33 58 -107 104 -173 11 -15 19 -30 19
-33 0 -8 -73 -6 -130 5 -82 16 -102 29 -122 84 -17 44 -17 51 -3 72 25 38 40
29 73 -45 17 -37 38 -71 46 -74 23 -9 20 1 -19 79 -39 77 -42 96 -19 118 20
21 32 13 51 -33z m-707 26 c0 -22 -31 -57 -50 -57 -19 0 -19 1 -3 35 16 34 53
49 53 22z m5884 -85 c19 -51 30 -95 25 -98 -11 -7 -34 45 -54 123 -29 109 -18
100 29 -25z m1662 66 c-4 -18 -11 -68 -16 -112 -12 -102 -18 -119 -34 -104
-20 19 -8 96 37 221 13 37 21 34 13 -5z m-2486 2 c-8 -6 -24 -10 -35 -9 -15 0
-13 3 10 13 32 14 49 11 25 -4z m2247 -27 c-3 -10 -5 -2 -5 17 0 19 2 27 5 18
2 -10 2 -26 0 -35z m-1456 -108 l29 -79 -24 -26 c-13 -14 -26 -33 -29 -42 -18
-51 -38 11 -36 112 l1 55 12 -55 c7 -33 15 -50 19 -43 4 7 1 46 -8 87 -8 41
-15 90 -14 108 l1 33 10 -35 c5 -19 23 -71 39 -115z m1774 27 c-9 -48 -21 -98
-26 -112 -5 -14 -11 -36 -14 -49 -6 -32 -12 -36 -30 -21 -22 19 -17 45 42 190
8 19 18 43 23 52 6 10 10 26 11 35 0 12 2 14 6 5 3 -8 -2 -53 -12 -100z
m-2020 47 c0 -7 -8 -15 -17 -17 -18 -3 -25 18 -11 32 10 10 28 1 28 -15z
m-5049 -87 c-12 -12 -39 26 -32 45 7 16 9 15 23 -10 8 -16 12 -31 9 -35z
m5209 -28 c3 -38 8 -89 10 -113 5 -42 -4 -60 -28 -61 -5 0 -6 42 -3 93 2 50 5
107 5 126 1 55 10 31 16 -45z m1885 -30 c-12 -54 -23 -109 -26 -122 -4 -18 -7
-20 -18 -10 -8 7 -10 15 -5 18 5 3 16 42 24 85 16 80 34 139 41 132 2 -2 -5
-48 -16 -103z m50 -16 c-11 -46 -39 -114 -40 -97 0 4 9 35 20 69 11 34 20 70
20 78 0 8 3 13 6 9 3 -3 1 -30 -6 -59z m-2705 -18 c3 -5 1 -10 -4 -10 -6 0
-11 5 -11 10 0 6 2 10 4 10 3 0 8 -4 11 -10z m2815 -50 c0 -46 22 -109 36
-103 8 3 14 17 14 31 0 33 7 25 15 -16 3 -18 12 -52 21 -75 9 -23 17 -51 18
-62 2 -12 2 -13 -1 -2 -5 19 -19 23 -25 5 -3 -8 -9 -8 -24 0 -10 6 -13 12 -6
12 16 0 15 28 -3 65 -10 19 -13 22 -9 8 6 -25 -5 -30 -24 -11 -15 15 -16 3 -2
-23 13 -24 -11 -27 -30 -4 -7 8 -16 12 -21 9 -5 -3 -9 -1 -9 5 0 6 -6 8 -14 5
-10 -4 -12 2 -10 23 4 26 4 26 -5 6 -6 -13 -13 -23 -15 -23 -5 0 6 36 23 75 5
11 17 43 27 72 14 43 19 49 31 38 7 -8 13 -23 13 -35z m-2084 -27 c-5 -81 -4
-76 -16 -68 -5 3 -10 18 -10 32 0 26 20 103 27 103 2 0 2 -30 -1 -67z m-5946
32 c0 26 15 8 29 -34 9 -29 8 -37 -5 -53 -10 -10 -21 -18 -26 -18 -15 0 -51
87 -44 105 6 17 7 17 26 0 19 -17 20 -17 20 0z m7288 -48 c2 -15 -1 -27 -7
-27 -6 0 -11 6 -11 14 0 8 -3 22 -7 32 -4 12 -2 15 8 12 8 -2 15 -17 17 -31z
m587 -26 c-3 -6 -11 -8 -17 -5 -6 4 -5 9 3 15 16 10 23 4 14 -10z m-2475 -1
c0 -5 -4 -10 -10 -10 -5 0 -10 5 -10 10 0 6 5 10 10 10 6 0 10 -4 10 -10z
m2522 -12 c-7 -7 -12 -8 -12 -2 0 14 12 26 19 19 2 -3 -1 -11 -7 -17z m-8044
-30 c31 -71 32 -75 8 -97 -28 -26 -39 -27 -31 -2 3 10 -1 24 -10 31 -9 7 -13
22 -10 36 3 13 7 35 10 49 3 14 7 25 10 25 2 0 13 -19 23 -42z m1111 -88 c0
-10 -3 -8 -9 5 -12 27 -12 43 0 25 5 -8 9 -22 9 -30z m7195 -9 c-6 -6 -11 1
-18 29 l-7 25 15 -25 c8 -14 12 -27 10 -29z m-7273 9 c9 -38 1 -42 -31 -13
-33 29 -32 40 2 39 16 -1 25 -9 29 -26z m7584 21 c17 -7 16 -9 -9 -15 -31 -8
-42 -3 -31 13 7 12 12 13 40 2z m42 -40 c-3 -13 0 -17 12 -15 9 3 30 0 46 -5
26 -8 24 -9 -22 -8 -29 0 -53 4 -53 8 0 4 -9 11 -20 14 -30 10 -24 22 11 23
25 1 30 -3 26 -17z m-277 -28 c0 -8 7 -27 15 -43 9 -17 11 -30 5 -30 -5 0 -10
7 -10 16 0 13 -3 14 -14 5 -11 -9 -16 -9 -22 0 -4 8 -3 9 5 5 13 -9 10 51 -4
75 -8 12 -6 12 8 0 9 -7 17 -20 17 -28z m-55 -10 c8 -20 13 -38 10 -41 -3 -3
-5 -1 -5 5 0 5 -9 20 -20 33 -11 13 -20 20 -20 16 0 -4 -5 -4 -10 -1 -13 8 -3
25 15 25 8 0 22 -16 30 -37z m281 2 c10 -8 14 -15 7 -15 -6 0 -15 5 -18 10 -4
6 -11 8 -16 5 -5 -4 -9 -1 -9 4 0 15 13 14 36 -4z m-369 -1 c-3 -3 -12 -4 -19
-1 -8 3 -5 6 6 6 11 1 17 -2 13 -5z m458 -4 c3 -5 -1 -10 -9 -10 -9 0 -16 5
-16 10 0 6 4 10 9 10 6 0 13 -4 16 -10z m35 -15 c-7 -8 -18 -15 -24 -14 -7 0
-6 2 2 6 6 2 10 9 6 14 -3 5 2 9 12 9 13 0 14 -3 4 -15z m-104 -28 c5 -9 4 -9
-7 1 -7 6 -17 12 -22 12 -4 0 -5 -6 -1 -12 4 -7 3 -9 -1 -5 -5 4 -10 14 -11
22 -2 11 2 12 16 5 11 -6 22 -16 26 -23z m119 -8 c-4 -5 3 -9 14 -9 19 0 36
-31 30 -56 -1 -5 1 -17 6 -27 6 -14 10 -15 15 -6 5 7 7 1 7 -14 -1 -15 -3 -27
-3 -27 -9 0 -37 60 -38 79 -1 13 -8 27 -16 29 -13 5 -13 3 -1 -11 7 -10 9 -17
4 -17 -12 0 -44 66 -36 74 9 8 24 -4 18 -15z m-7436 -44 c0 -5 -4 -3 -9 5 -5
8 -9 22 -9 30 0 16 17 -16 18 -35z m6986 35 c3 -5 1 -10 -4 -10 -6 0 -11 5
-11 10 0 6 2 10 4 10 3 0 8 -4 11 -10z m-7055 -28 c0 -15 -2 -15 -10 -2 -13
20 -13 33 0 25 6 -3 10 -14 10 -23z m7263 21 c-7 -2 -13 -9 -13 -14 0 -13 28
-11 32 2 2 5 11 7 20 4 19 -7 33 -35 18 -35 -6 0 -10 5 -10 10 0 6 -7 10 -15
10 -8 0 -15 -4 -15 -10 0 -14 -19 -12 -35 4 -15 14 -2 37 20 35 5 0 4 -3 -2
-6z m-183 -13 c0 -5 -5 -10 -11 -10 -5 0 -7 5 -4 10 3 6 8 10 11 10 2 0 4 -4
4 -10z m-2680 -10 c0 -5 -7 -10 -15 -10 -8 0 -15 5 -15 10 0 6 7 10 15 10 8 0
15 -4 15 -10z m2770 6 c0 -3 -4 -8 -10 -11 -5 -3 -10 -1 -10 4 0 6 5 11 10 11
6 0 10 -2 10 -4z m22 -23 c-6 -2 -9 -10 -6 -15 4 -7 2 -8 -5 -4 -13 9 -5 26
12 25 9 0 8 -2 -1 -6z m-27 -41 c-3 -3 -11 0 -18 7 -9 10 -8 11 6 5 10 -3 15
-9 12 -12z m216 -9 c13 -17 13 -17 -6 -3 -11 8 -22 16 -24 17 -2 2 0 3 6 3 6
0 17 -8 24 -17z m-7680 -123 c11 0 11 -2 0 37 -9 31 1 54 14 34 3 -6 11 -8 18
-5 9 3 25 -33 51 -118 40 -129 70 -198 86 -198 11 0 12 14 1 88 -8 56 -1 67
17 27 6 -14 18 -25 26 -25 12 0 13 6 5 32 -5 17 -7 33 -5 35 5 6 26 -57 26
-77 0 -10 7 -24 17 -31 15 -13 16 -10 11 31 l-6 45 18 -40 c10 -22 20 -53 22
-70 l3 -30 -92 -1 c-51 0 -98 -6 -105 -12 -9 -7 -40 -9 -86 -6 l-72 5 -2 -238
c-2 -152 -7 -237 -13 -236 -6 2 -11 156 -13 430 l-2 427 36 -52 c20 -29 41
-52 45 -52z m7516 85 c0 -8 -4 -12 -9 -9 -4 3 -8 9 -8 15 0 5 4 9 8 9 5 0 9
-7 9 -15z m453 -19 c0 -8 -5 -18 -12 -22 -7 -5 -8 -3 -3 6 4 7 2 16 -6 21 -11
7 -10 9 4 9 9 0 17 -6 17 -14z m55 4 c3 -6 -1 -7 -9 -4 -18 7 -21 14 -7 14 6
0 13 -4 16 -10z m-54 -64 c-14 -36 -22 -33 -9 5 6 16 12 28 14 26 3 -2 0 -16
-5 -31z m-74 -8 c-3 -7 -5 -2 -5 12 0 14 2 19 5 13 2 -7 2 -19 0 -25z m153 22
c0 -5 -2 -10 -4 -10 -3 0 -8 5 -11 10 -3 6 -1 10 4 10 6 0 11 -4 11 -10z
m-804 -237 c-3 -3 -146 14 -183 22 -22 5 -23 10 -23 98 l0 92 105 -105 c57
-57 103 -105 101 -107z m549 197 c3 -5 1 -10 -4 -10 -6 0 -11 5 -11 10 0 6 2
10 4 10 3 0 8 -4 11 -10z m-160 -10 c3 -5 1 -10 -4 -10 -6 0 -11 5 -11 10 0 6
2 10 4 10 3 0 8 -4 11 -10z m183 -23 c6 -5 12 -14 12 -20 0 -7 -5 -4 -11 6 -6
9 -14 15 -19 12 -5 -3 -11 -1 -14 4 -7 11 13 9 32 -2z m-140 -52 c-3 -3 -9 2
-12 12 -6 14 -5 15 5 6 7 -7 10 -15 7 -18z m-2628 -76 c0 -5 -7 -9 -15 -9 -15
0 -20 12 -9 23 8 8 24 -1 24 -14z m-4691 -53 c6 -22 6 -35 1 -30 -10 10 -27
83 -17 74 2 -3 10 -23 16 -44z m-1139 14 c0 -5 -5 -10 -11 -10 -5 0 -7 5 -4
10 3 6 8 10 11 10 2 0 4 -4 4 -10z m-250 -54 c0 -43 -11 -51 -34 -25 -16 20
-16 22 0 40 25 28 34 24 34 -15z m8156 11 c-10 -7 -32 -23 -47 -35 -16 -13
-29 -19 -29 -13 0 5 19 21 43 35 41 25 70 36 33 13z m54 -11 c0 -2 -18 -16
-41 -30 -22 -15 -38 -30 -35 -33 3 -3 17 2 31 11 15 10 25 12 25 6 0 -7 19
-10 53 -8 48 3 52 1 55 -20 3 -18 8 -23 23 -19 10 3 17 1 13 -4 -3 -5 1 -9 9
-9 14 0 37 -40 37 -65 0 -12 -16 -15 -73 -15 -41 0 -106 -9 -148 -20 -41 -11
-77 -20 -81 -20 -5 0 -8 31 -8 70 0 79 10 93 90 135 49 26 50 27 50 21z
m-2420 -52 c0 -8 -4 -12 -10 -9 -5 3 -10 10 -10 16 0 5 5 9 10 9 6 0 10 -7 10
-16z m-5846 -30 c56 -31 60 -37 52 -80 l-7 -34 -27 32 c-15 18 -29 35 -32 38
-11 10 -40 55 -40 62 0 12 3 11 54 -18z m7396 -18 c0 -3 -4 -8 -10 -11 -5 -3
-10 -1 -10 4 0 6 5 11 10 11 6 0 10 -2 10 -4z m-1460 -40 c0 -3 -4 -8 -10 -11
-5 -3 -10 -1 -10 4 0 6 5 11 10 11 6 0 10 -2 10 -4z m100 -16 c0 -5 -5 -10
-11 -10 -5 0 -7 5 -4 10 3 6 8 10 11 10 2 0 4 -4 4 -10z m-5990 -100 c-1 -25
-1 -25 -30 8 -38 41 -38 56 0 34 21 -12 30 -25 30 -42z m6030 40 c0 -5 -5 -10
-11 -10 -5 0 -7 5 -4 10 3 6 8 10 11 10 2 0 4 -4 4 -10z m1530 0 c0 -5 -5 -10
-11 -10 -5 0 -7 5 -4 10 3 6 8 10 11 10 2 0 4 -4 4 -10z m235 0 c3 -5 1 -10
-4 -10 -6 0 -11 5 -11 10 0 6 2 10 4 10 3 0 8 -4 11 -10z m-568 -26 c-3 -3
-12 -4 -19 -1 -8 3 -5 6 6 6 11 1 17 -2 13 -5z m-1547 -18 c0 -3 -4 -8 -10
-11 -5 -3 -10 -1 -10 4 0 6 5 11 10 11 6 0 10 -2 10 -4z m-5777 -18 c12 -6 39
-25 60 -41 35 -29 37 -34 37 -86 l0 -56 -28 30 c-110 119 -143 193 -69 153z
m2537 8 c0 -3 -4 -8 -10 -11 -5 -3 -10 -1 -10 4 0 6 5 11 10 11 6 0 10 -2 10
-4z m5928 -26 c-7 -11 -16 -20 -20 -20 -5 0 -10 0 -13 0 -3 0 -13 -7 -22 -16
-22 -18 -201 -134 -221 -141 -12 -5 -12 -2 0 17 20 35 43 57 55 53 6 -2 19 16
28 41 19 49 48 85 38 46 -3 -11 -9 -23 -14 -26 -5 -3 -9 -15 -9 -27 l1 -22 19
24 c12 14 20 18 20 10 1 -8 7 -3 15 11 8 14 14 19 15 13 0 -19 20 -16 38 7 10
10 24 20 32 22 8 2 21 9 28 16 20 18 24 15 10 -8z m-3035 -16 c8 -8 -3 -34
-14 -34 -5 0 -9 9 -9 20 0 19 11 26 23 14z m4043 -24 c5 1 10 -4 12 -10 3 -9
-1 -9 -17 -1 -11 7 -21 17 -21 24 0 8 3 8 9 -1 4 -8 12 -13 17 -12z m-1816 0
c0 -5 -5 -10 -11 -10 -5 0 -7 5 -4 10 3 6 8 10 11 10 2 0 4 -4 4 -10z m115 0
c3 -5 1 -10 -4 -10 -6 0 -11 5 -11 10 0 6 2 10 4 10 3 0 8 -4 11 -10z m120 0
c3 -5 1 -10 -4 -10 -6 0 -11 5 -11 10 0 6 2 10 4 10 3 0 8 -4 11 -10z m-450
-20 c3 -5 1 -10 -4 -10 -6 0 -11 5 -11 10 0 6 2 10 4 10 3 0 8 -4 11 -10z
m802 -12 c-3 -8 -6 -5 -6 6 -1 11 2 17 5 13 3 -3 4 -12 1 -19z m-2227 -13 c0
-8 -4 -15 -10 -15 -5 0 -7 7 -4 15 4 8 8 15 10 15 2 0 4 -7 4 -15z m-5933
-115 c9 -11 12 -79 13 -271 l0 -257 -70 69 -70 70 2 119 c1 66 3 120 5 120 2
0 22 -10 43 -22 56 -33 59 -16 6 39 -61 64 -76 110 -27 84 32 -18 33 3 1 39
-25 28 -30 42 -30 84 l0 50 57 -54 c31 -30 63 -62 70 -70z m216 94 c9 -9 -4
-35 -14 -28 -5 3 -9 12 -9 20 0 14 12 19 23 8z m5129 -39 c0 -5 -5 -11 -11
-13 -6 -2 -11 4 -11 13 0 9 5 15 11 13 6 -2 11 -8 11 -13z m416 -12 c-5 -25
-28 -28 -28 -4 0 12 6 21 16 21 9 0 14 -7 12 -17z m2602 -35 c0 -29 20 -20 21
10 1 18 4 12 9 -18 12 -72 -7 -100 -104 -156 -27 -15 -44 -30 -37 -32 6 -2 17
1 24 7 7 5 22 8 34 5 11 -3 34 1 51 10 29 15 30 14 36 -7 5 -18 -7 -34 -66
-90 -40 -38 -94 -87 -120 -109 l-48 -40 0 70 c0 41 5 74 11 78 7 4 10 29 7 65
-2 33 -3 59 -1 59 1 0 9 -16 18 -36 20 -49 37 -34 34 29 l-3 51 37 9 c28 7 37
14 37 30 1 25 24 60 33 50 4 -3 7 9 7 28 0 26 3 30 10 19 5 -8 10 -23 10 -32z
m-430 26 c0 -8 -19 -13 -24 -6 -3 5 1 9 9 9 8 0 15 -2 15 -3z m-567 -19 c-6
-17 -25 -15 -31 3 -2 7 5 12 17 12 14 0 19 -5 14 -15z m-123 -9 c0 -3 -4 -8
-10 -11 -5 -3 -10 -1 -10 4 0 6 5 11 10 11 6 0 10 -2 10 -4z m-4690 -24 c0
-13 -12 -22 -22 -16 -10 6 -1 24 13 24 5 0 9 -4 9 -8z m2800 -41 c0 -5 -7 -11
-15 -15 -9 -3 -15 0 -15 9 0 8 7 15 15 15 8 0 15 -4 15 -9z m-970 -25 c0 -20
-19 -31 -32 -18 -6 6 -7 15 -4 21 10 16 36 13 36 -3z m1738 -14 c2 -7 -6 -12
-17 -12 -21 0 -27 11 -14 24 9 9 26 2 31 -12z m2267 -22 c-7 -11 -85 -53 -85
-46 0 4 81 56 88 56 2 0 0 -5 -3 -10z m-7225 -50 c0 -5 -4 -10 -10 -10 -5 0
-10 5 -10 10 0 6 5 10 10 10 6 0 10 -4 10 -10z m4185 1 c7 -12 -12 -24 -25
-16 -11 7 -4 25 10 25 5 0 11 -4 15 -9z m2323 -83 c-7 -19 -38 -22 -38 -4 0
10 9 16 21 16 12 0 19 -5 17 -12z m-6398 -73 c0 -8 -4 -15 -9 -15 -5 0 -11 7
-15 15 -3 9 0 15 9 15 8 0 15 -7 15 -15z m2526 -16 c10 -17 -13 -36 -27 -22
-12 12 -4 33 11 33 5 0 12 -5 16 -11z m4602 -55 c-5 -55 -5 -55 -114 -165 -60
-60 -112 -109 -116 -109 -5 0 -8 24 -8 53 l0 54 113 111 c61 62 116 112 121
112 5 0 6 -25 4 -56z m-2695 30 c11 -11 -5 -34 -24 -34 -18 0 -26 20 -12 33 8
9 28 9 36 1z m-4783 -24 c0 -5 -2 -10 -4 -10 -3 0 -8 5 -11 10 -3 6 -1 10 4
10 6 0 11 -4 11 -10z m2920 -11 c0 -5 -7 -9 -15 -9 -15 0 -20 12 -9 23 8 8 24
-1 24 -14z m1590 11 c0 -5 -5 -10 -11 -10 -5 0 -7 5 -4 10 3 6 8 10 11 10 2 0
4 -4 4 -10z m-4634 -87 c-10 -10 -19 5 -10 18 6 11 8 11 12 0 2 -7 1 -15 -2
-18z m6992 -10 c-2 -10 -10 -18 -18 -18 -8 0 -16 8 -18 18 -2 12 3 17 18 17
15 0 20 -5 18 -17z m-7048 -59 c0 -8 -5 -12 -10 -9 -6 4 -8 11 -5 16 9 14 15
11 15 -7z m4805 -54 c3 -5 1 -10 -4 -10 -6 0 -11 5 -11 10 0 6 2 10 4 10 3 0
8 -4 11 -10z m-1655 -95 c0 -8 -7 -15 -15 -15 -16 0 -20 12 -8 23 11 12 23 8
23 -8z m4195 -25 c0 -8 -8 -16 -17 -18 -13 -2 -18 3 -18 18 0 15 5 20 18 18 9
-2 17 -10 17 -18z m-2743 -35 c0 -5 -5 -11 -11 -13 -6 -2 -11 4 -11 13 0 9 5
15 11 13 6 -2 11 -8 11 -13z m2937 -157 c-44 -281 -52 -319 -74 -323 -11 -2
-148 -14 -305 -25 -157 -12 -291 -23 -297 -25 -9 -3 -13 -28 -13 -80 l0 -75
43 1 c23 0 63 4 89 8 42 7 47 6 50 -13 5 -27 -19 -197 -29 -207 -5 -4 -54 -10
-110 -14 -82 -5 -103 -4 -104 7 -3 59 6 157 22 235 20 97 23 122 39 397 6 93
13 172 16 177 3 5 26 9 52 9 45 0 50 -3 98 -57 28 -32 94 -113 148 -180 53
-68 101 -123 106 -123 6 0 10 54 11 128 1 70 4 156 8 192 l6 65 60 6 c33 3 92
6 131 7 l71 2 -18 -112z m-7543 45 c-10 -10 -19 5 -10 18 6 11 8 11 12 0 2 -7
1 -15 -2 -18z m184 7 c0 -5 -2 -10 -4 -10 -3 0 -8 5 -11 10 -3 6 -1 10 4 10 6
0 11 -4 11 -10z m5377 -6 c8 -21 -13 -42 -28 -27 -13 13 -5 43 11 43 6 0 13
-7 17 -16z m1212 -26 c0 -34 -13 -114 -43 -273 -10 -49 -19 -99 -22 -111 -3
-19 -13 -22 -95 -27 -51 -4 -94 -8 -95 -10 -2 -1 -4 -36 -6 -77 l-3 -75 50 1
c28 0 67 3 88 7 34 5 37 4 37 -19 0 -70 -107 -186 -205 -224 -133 -50 -286
-23 -361 63 -49 58 -59 103 -45 212 6 50 15 171 21 270 6 99 12 194 15 212 l6
31 87 7 c48 3 104 8 126 12 l38 5 -7 -63 c-4 -35 -17 -118 -30 -184 -13 -66
-26 -136 -30 -156 l-5 -37 -95 -7 c-56 -4 -95 -11 -98 -18 -10 -30 -7 -114 6
-131 12 -16 21 -17 103 -8 72 7 94 6 118 -5 55 -28 120 3 145 70 11 28 21 128
41 401 5 77 11 141 13 143 4 3 160 19 215 22 30 1 32 -1 31 -31z m341 -59 c0
-6 -4 -7 -10 -4 -5 3 -10 11 -10 16 0 6 5 7 10 4 6 -3 10 -11 10 -16z m-6780
-49 c0 -5 -4 -10 -10 -10 -5 0 -10 5 -10 10 0 6 5 10 10 10 6 0 10 -4 10 -10z
m-330 -16 c0 -8 -4 -12 -10 -9 -5 3 -10 10 -10 16 0 5 5 9 10 9 6 0 10 -7 10
-16z m60 -4 c0 -5 -2 -10 -4 -10 -3 0 -8 5 -11 10 -3 6 -1 10 4 10 6 0 11 -4
11 -10z m211 -43 c-13 -13 -26 -3 -16 12 3 6 11 8 17 5 6 -4 6 -10 -1 -17z
m-215 -124 c-11 -11 -19 6 -11 24 8 17 8 17 12 0 3 -10 2 -21 -1 -24z m8353
-83 l6 -45 86 3 c70 3 87 1 92 -11 8 -22 -22 -200 -36 -209 -7 -4 -28 -8 -47
-8 -19 0 -65 -3 -102 -6 l-66 -7 4 79 c3 44 12 110 20 149 8 38 16 88 16 110
1 37 1 38 11 15 5 -14 13 -45 16 -70z m-6404 -17 c-4 -32 -17 -114 -30 -183
-13 -69 -26 -141 -29 -161 l-6 -36 -233 -18 c-127 -10 -263 -20 -302 -24 l-70
-6 -3 -79 -3 -79 96 7 95 6 -1 -32 c0 -49 -25 -178 -35 -188 -5 -4 -55 -11
-111 -15 l-103 -7 0 73 c1 41 10 115 20 164 13 55 26 182 35 329 8 132 18 243
22 247 10 10 236 28 245 20 7 -6 -10 -142 -32 -246 -6 -31 -9 -59 -6 -62 2 -3
46 -2 95 2 l91 7 1 82 c0 93 12 222 20 231 6 5 145 20 222 24 l28 1 -6 -57z
m-713 -47 c-2 -21 -9 -71 -16 -110 l-12 -71 -84 -9 c-47 -5 -88 -14 -92 -19
-3 -6 -12 -40 -18 -76 -6 -36 -14 -78 -16 -92 -5 -25 -8 -26 -96 -33 -56 -4
-95 -11 -100 -19 -4 -6 -7 -41 -6 -77 l3 -65 70 3 c39 2 80 5 93 7 20 3 22 0
22 -35 0 -22 -6 -72 -12 -111 -15 -85 -16 -85 -143 -90 l-90 -4 2 82 c1 45 11
128 23 185 11 57 21 150 22 208 l3 105 -84 -4 -84 -3 6 108 c4 59 10 111 15
115 4 4 113 15 242 24 129 10 237 19 240 22 2 2 29 3 60 1 l55 -3 -3 -39z
m-962 10 c0 -3 -4 -8 -10 -11 -5 -3 -10 -1 -10 4 0 6 5 11 10 11 6 0 10 -2 10
-4z m124 -56 c101 -38 154 -124 142 -229 -7 -61 -47 -159 -68 -165 -7 -3 -112
-12 -233 -21 -121 -8 -230 -18 -242 -20 -21 -5 -23 -11 -23 -82 l0 -76 90 6
90 7 0 -53 c-1 -28 -6 -79 -13 -112 l-13 -60 -59 -6 c-33 -4 -83 -7 -111 -8
l-51 -1 4 73 c3 39 14 119 24 177 13 67 24 187 30 330 5 123 13 228 18 233 5
5 62 11 127 14 66 3 121 7 123 9 13 12 118 1 165 -16z m6864 -26 c64 4 125 9
135 12 15 5 17 -2 17 -53 -1 -32 -6 -85 -13 -118 -12 -56 -14 -60 -47 -66 -19
-4 -41 -4 -50 1 -34 18 -171 173 -216 245 l-19 30 38 -29 37 -29 118 7z
m-7625 -24 c78 -24 141 -80 181 -159 22 -42 27 -67 29 -143 l2 -93 -84 -7
c-103 -9 -111 -11 -111 -41 0 -14 -7 -44 -15 -67 -8 -24 -13 -46 -9 -49 3 -3
48 -5 100 -3 l95 3 -16 -38 c-18 -42 -32 -60 -89 -112 -97 -89 -201 -125 -339
-119 -146 7 -243 61 -294 166 -26 54 -28 64 -27 187 1 186 35 277 141 377 116
108 283 145 436 98z m5335 -7 c5 -18 -28 -29 -38 -12 -5 7 -6 17 -3 22 7 12
35 5 41 -10z m-5954 -65 c-9 -65 -33 -203 -52 -303 l-17 -90 -295 -23 c-162
-12 -305 -25 -317 -27 -21 -5 -23 -11 -23 -81 l0 -76 95 7 95 7 0 -34 c0 -44
-26 -178 -37 -188 -4 -5 -54 -12 -110 -15 l-103 -8 0 70 c0 39 11 124 24 189
17 83 28 186 36 339 7 148 15 222 23 227 7 4 31 8 54 8 41 0 44 -2 128 -102
48 -57 92 -110 98 -118 67 -86 120 -150 122 -148 2 2 6 59 9 128 4 69 9 155
12 192 l6 67 41 6 c46 6 109 11 175 13 l42 2 -6 -42z m3595 -35 c0 -10 -4 -36
-8 -58 -7 -31 -9 -34 -10 -13 -1 17 -11 34 -31 48 -41 29 -38 40 10 40 32 0
40 -4 39 -17z m1193 -139 c46 4 106 9 133 12 l51 4 -8 -82 c-4 -46 -12 -99
-16 -118 -7 -32 -11 -35 -48 -38 -40 -3 -43 -1 -140 101 -54 57 -107 119 -118
136 l-18 33 41 -27 c38 -26 44 -27 123 -21z m-1215 -41 c-3 -10 -5 -4 -5 12 0
17 2 24 5 18 2 -7 2 -21 0 -30z m369 -24 c32 1 76 6 96 10 31 7 40 5 57 -13
32 -34 121 -190 113 -197 -4 -4 -57 -11 -118 -14 l-112 -7 -51 76 c-54 79 -91
155 -91 184 0 12 7 9 24 -12 21 -28 27 -30 82 -27z m291 1 c0 -18 -6 -30 -13
-30 -8 0 -11 10 -9 28 5 34 4 32 13 32 5 0 9 -13 9 -30z m-1564 -69 l6 -29 91
5 90 5 0 -38 c-1 -51 -25 -173 -36 -183 -5 -5 -55 -12 -111 -15 l-103 -7 0 58
c0 82 29 233 45 233 7 0 15 -13 18 -29z m3627 9 c0 -5 -4 -10 -10 -10 -5 0
-10 5 -10 10 0 6 5 10 10 10 6 0 10 -4 10 -10z m2200 -10 c0 -13 -45 -88 -168
-275 -58 -88 -106 -161 -107 -163 -1 -1 -51 -7 -111 -12 -60 -6 -119 -12 -130
-15 -17 -4 -24 2 -35 28 -7 17 -37 83 -66 144 -73 156 -104 236 -96 244 13 13
254 26 261 14 4 -5 16 -48 28 -94 11 -47 25 -86 31 -88 6 -2 30 42 53 97 24
56 49 104 56 107 40 15 284 27 284 13z m-4260 -20 c0 -5 -4 -10 -10 -10 -5 0
-10 5 -10 10 0 6 5 10 10 10 6 0 10 -4 10 -10z m2610 -44 c0 -30 4 -56 9 -58
9 -3 -19 -220 -38 -288 -5 -19 -12 -58 -16 -87 -8 -59 -2 -56 -134 -67 -35 -4
-66 -7 -67 -9 -1 -1 -3 -29 -4 -62 -3 -106 -10 -98 73 -90 39 4 79 9 87 10 8
1 22 -1 30 -5 8 -4 72 -2 143 4 l127 12 0 -42 c0 -45 -19 -155 -29 -166 -7 -8
-481 -49 -491 -43 -13 8 -1 151 20 255 12 58 24 160 27 228 6 113 5 124 -14
145 -17 18 -21 41 -26 128 l-6 107 67 7 c83 8 147 26 192 54 19 11 38 21 43
21 4 0 7 -24 7 -54z m788 -31 c8 -22 33 -116 56 -210 l43 -170 -36 -7 c-20 -4
-59 -7 -87 -7 -28 -1 -53 -4 -57 -7 -3 -3 7 -40 21 -81 l27 -75 75 6 c41 3 85
8 97 10 18 4 24 -4 42 -52 30 -84 45 -152 35 -162 -5 -4 -55 -11 -112 -15
l-103 -7 -16 41 -16 41 -91 -6 c-145 -10 -158 -14 -183 -59 l-22 -40 -118 -11
c-65 -6 -122 -8 -126 -4 -12 10 51 142 130 271 63 104 173 327 173 350 0 16
90 202 107 221 14 15 29 18 82 16 l66 -3 13 -40z m-6443 -21 c16 -25 19 -25
109 -22 70 2 92 6 89 16 -3 6 -1 12 3 12 12 0 77 -92 119 -167 l34 -62 -27 -5
c-15 -3 -70 -8 -122 -11 l-95 -6 -49 78 c-42 66 -96 172 -96 188 0 14 20 2 35
-21z m4757 -26 c-9 -9 -15 -9 -24 0 -9 9 -7 12 12 12 19 0 21 -3 12 -12z m426
-44 c43 -18 97 -67 120 -109 32 -60 7 -285 -31 -285 -7 0 -127 -9 -267 -20
-140 -11 -256 -20 -257 -20 -2 0 -3 -37 -3 -81 l0 -82 68 7 c128 14 130 13
113 -86 -7 -40 -14 -80 -16 -88 -2 -8 -4 -20 -4 -27 -1 -12 -36 -18 -153 -27
l-68 -5 0 73 c0 40 9 116 20 168 11 53 24 172 30 265 5 92 12 201 16 240 7 82
3 79 124 86 164 10 272 6 308 -9z m-6768 -42 c0 -4 11 -14 25 -23 20 -12 40
-14 94 -8 37 4 97 9 132 10 54 2 64 0 67 -15 3 -15 -25 -207 -31 -212 -1 -1
-18 -5 -37 -9 -42 -8 -42 -8 -159 120 -82 88 -121 145 -101 145 5 0 10 -3 10
-8z m4029 -56 c10 -12 31 -14 117 -9 l104 6 0 -25 0 -25 -177 -6 c-174 -6
-223 -12 -223 -27 0 -4 38 -9 83 -12 68 -3 93 -9 131 -32 94 -55 127 -157 92
-281 -30 -100 -25 -98 -300 -118 -132 -10 -244 -20 -248 -23 -4 -3 -8 -39 -8
-81 l0 -75 95 7 95 7 -1 -34 c0 -49 -25 -178 -35 -187 -5 -5 -55 -12 -111 -15
-102 -7 -103 -7 -103 16 0 16 -3 19 -11 11 -24 -24 -5 -66 49 -110 59 -48 38
-45 215 -27 l57 6 0 -171 c0 -160 -1 -171 -17 -163 -21 10 -212 58 -295 73
l-56 10 -4 72 c-3 40 -4 315 -4 612 l1 540 70 6 c39 3 148 12 244 19 l174 13
10 28 c11 29 29 28 56 -5z m5138 -22 c34 -112 -14 -271 -59 -192 -21 38 -38
91 -38 120 0 30 19 78 31 78 5 0 6 6 3 14 -3 8 2 16 13 19 30 8 37 2 50 -39z
m-4325 -33 c64 -31 134 -105 157 -166 23 -63 37 -200 21 -210 -6 -4 -49 -10
-96 -15 -46 -4 -86 -9 -88 -11 -1 -2 -10 -31 -18 -64 -8 -33 -19 -68 -23 -79
-8 -18 -4 -18 71 -12 43 4 89 10 102 13 61 14 -10 -106 -105 -179 -79 -59
-156 -88 -259 -95 -157 -11 -295 57 -344 168 -46 108 -36 337 20 442 24 44 24
47 5 47 -8 0 -15 7 -15 15 0 17 25 21 35 6 3 -6 23 9 44 32 49 53 130 102 201
122 81 22 230 15 292 -14z m-2232 -81 c0 -5 -4 -10 -10 -10 -5 0 -10 5 -10 10
0 6 5 10 10 10 6 0 10 -4 10 -10z m-190 -40 l0 -31 103 7 c56 4 109 8 117 8
10 1 14 -7 13 -24 -3 -51 -25 -187 -32 -198 -3 -6 -65 -16 -136 -22 -72 -6
-133 -14 -137 -18 -4 -5 -11 -30 -14 -56 l-7 -49 109 4 c104 4 109 3 106 -16
-9 -66 7 -60 -211 -77 -110 -9 -204 -19 -210 -23 -16 -9 -14 -142 2 -148 6 -2
50 -2 96 1 l84 4 -6 -59 c-3 -32 -11 -82 -17 -110 l-11 -52 -67 -5 c-37 -4
-86 -8 -109 -11 l-43 -5 0 69 c0 37 11 122 24 187 22 108 28 176 40 471 2 45
7 86 10 91 3 6 45 13 94 16 48 4 102 9 121 12 l33 5 -21 23 c-30 32 -27 36 24
36 43 0 45 -1 45 -30z m810 4 c0 -39 -20 -167 -30 -190 -8 -20 -19 -22 -133
-29 -68 -4 -129 -10 -135 -14 -6 -4 -14 -26 -18 -49 l-7 -43 84 6 c46 4 94 8
106 11 30 6 33 -4 22 -58 -12 -54 4 -50 -254 -68 -82 -6 -156 -13 -163 -15 -9
-4 -12 -26 -10 -82 l3 -78 75 4 c41 2 83 7 92 12 10 6 18 5 20 -2 3 -8 40 -8
133 -1 72 5 133 7 136 3 9 -9 -21 -195 -32 -202 -9 -5 -405 -39 -461 -39 -28
0 -28 0 -28 73 0 40 9 113 19 162 22 103 27 152 41 395 6 96 14 178 18 182 4
4 111 16 237 26 313 26 285 27 285 -4z m5160 -109 l5 -50 45 0 c25 1 65 3 90
5 l45 4 -1 -54 c-1 -30 -7 -81 -13 -112 l-12 -57 -52 -5 c-29 -3 -78 -8 -109
-11 l-57 -5 -3 72 c-2 51 4 100 20 163 13 50 20 101 17 115 -5 23 -4 24 7 5 7
-11 15 -42 18 -70z m-6360 23 c-1 -44 -66 -407 -75 -416 -2 -2 -42 -7 -89 -9
-51 -4 -90 -11 -96 -19 -6 -7 -10 -43 -8 -81 l3 -68 60 2 c33 2 75 5 93 8 l32
6 0 -43 c-1 -43 -23 -174 -31 -183 -3 -2 -54 -7 -113 -11 l-109 -7 7 88 c3 49
15 132 26 184 11 59 23 182 30 315 6 121 13 223 16 228 3 4 26 8 52 9 26 0 67
4 92 8 98 15 110 14 110 -11z m-584 -85 c-5 -47 -42 -262 -61 -359 -4 -19 -14
-22 -97 -28 -54 -4 -96 -12 -100 -19 -4 -7 -8 -42 -8 -79 l0 -68 43 1 c23 0
66 4 94 8 29 4 56 4 60 0 5 -5 66 -3 136 2 71 6 131 8 135 5 9 -10 -24 -198
-37 -206 -6 -3 -32 -7 -59 -8 -26 -2 -129 -9 -230 -17 -101 -8 -188 -15 -193
-15 -17 0 -9 128 16 253 18 90 27 184 34 337 6 117 14 217 20 223 9 9 119 22
215 26 l39 1 -7 -57z m2506 -339 c45 4 85 11 89 17 8 14 56 -48 108 -139 22
-41 41 -75 41 -77 0 -4 -49 -9 -171 -20 l-66 -6 -50 78 c-89 136 -122 224 -63
168 29 -27 31 -28 112 -21z m-512 -164 c0 -5 -7 -10 -15 -10 -8 0 -15 5 -15
10 0 6 7 10 15 10 8 0 15 -4 15 -10z m1613 -25 c1 -5 -6 -11 -15 -13 -11 -2
-18 3 -18 13 0 17 30 18 33 0z m-658 -5 c3 -5 1 -10 -4 -10 -6 0 -11 5 -11 10
0 6 2 10 4 10 3 0 8 -4 11 -10z m605 0 c0 -5 -5 -10 -11 -10 -5 0 -7 5 -4 10
3 6 8 10 11 10 2 0 4 -4 4 -10z m736 -1 c4 -7 29 -10 70 -6 l64 4 -1 -181 c-1
-105 -5 -168 -9 -151 -6 26 -8 22 -9 -23 0 -29 3 -51 8 -48 4 3 9 -28 10 -69
2 -54 -2 -79 -12 -90 -8 -8 -18 -11 -22 -7 -5 4 -5 2 -2 -4 4 -7 0 -17 -9 -24
-12 -11 -31 -11 -97 -1 -46 7 -95 9 -109 6 l-26 -7 -6 104 c-3 57 -8 185 -11
284 l-6 181 32 7 c17 3 47 6 66 6 21 0 36 6 39 15 7 18 20 19 30 4z m611 -15
c8 -21 -13 -42 -28 -27 -13 13 -5 43 11 43 6 0 13 -7 17 -16z m-1867 -49 c10
-12 9 -16 -5 -21 -19 -8 -40 9 -31 25 10 15 21 14 36 -4z m569 6 c13 -8 8 -31
-7 -31 -17 1 -34 19 -28 29 9 13 16 14 35 2z m-629 -51 c0 -5 -7 -10 -15 -10
-8 0 -15 5 -15 10 0 6 7 10 15 10 8 0 15 -4 15 -10z m330 -5 c0 -8 -7 -15 -15
-15 -8 0 -15 7 -15 15 0 8 7 15 15 15 8 0 15 -7 15 -15z m240 5 c0 -5 -7 -10
-15 -10 -8 0 -15 5 -15 10 0 6 7 10 15 10 8 0 15 -4 15 -10z m935 0 c3 -5 -1
-10 -10 -10 -9 0 -13 5 -10 10 3 6 8 10 10 10 2 0 7 -4 10 -10z m-2475 -45 c0
-8 -9 -15 -20 -15 -11 0 -20 7 -20 15 0 8 9 15 20 15 11 0 20 -7 20 -15z
m-160 -15 c0 -5 -2 -10 -4 -10 -3 0 -8 5 -11 10 -3 6 -1 10 4 10 6 0 11 -4 11
-10z m1010 -55 c0 -8 -7 -15 -15 -15 -8 0 -15 7 -15 15 0 8 7 15 15 15 8 0 15
-7 15 -15z m570 0 c0 -8 -7 -15 -15 -15 -8 0 -15 7 -15 15 0 8 7 15 15 15 8 0
15 -7 15 -15z m-870 -39 c0 -3 -4 -8 -10 -11 -5 -3 -10 -1 -10 4 0 6 5 11 10
11 6 0 10 -2 10 -4z m1930 -26 c0 -5 -7 -10 -15 -10 -8 0 -15 5 -15 10 0 6 7
10 15 10 8 0 15 -4 15 -10z m-1300 -80 c0 -5 -7 -10 -15 -10 -8 0 -15 5 -15
10 0 6 7 10 15 10 8 0 15 -4 15 -10z m124 -69 c3 -5 0 -13 -7 -19 -15 -13 -42
1 -33 17 9 13 33 15 40 2z m-214 -11 c0 -5 -7 -10 -15 -10 -8 0 -15 5 -15 10
0 6 7 10 15 10 8 0 15 -4 15 -10z m570 0 c0 -5 -7 -10 -15 -10 -8 0 -15 5 -15
10 0 6 7 10 15 10 8 0 15 -4 15 -10z m-290 -71 c0 -16 -31 -22 -43 -10 -9 9
-9 14 2 20 16 10 41 4 41 -10z m-277 -73 c7 -17 -22 -31 -36 -17 -5 5 -6 14
-3 20 10 16 33 14 39 -3z m567 -6 c0 -21 -24 -28 -35 -10 -8 14 3 30 21 30 8
0 14 -9 14 -20z m-481 -104 c9 -10 9 -16 1 -21 -17 -11 -40 3 -34 20 8 19 18
19 33 1z m122 -19 c-5 -5 -17 -7 -26 -3 -14 5 -15 9 -5 21 10 12 16 13 27 4 9
-8 10 -16 4 -22z m-120 -62 c0 -5 -7 -12 -16 -13 -23 -5 -47 6 -40 19 8 13 56
8 56 -6z m124 0 c0 -5 -10 -11 -22 -13 -16 -2 -23 2 -23 13 0 11 7 15 23 13
12 -2 22 -7 22 -13z m415 6 c0 -12 -20 -25 -27 -18 -7 7 6 27 18 27 5 0 9 -4
9 -9z m-470 -11 c0 -5 -4 -10 -10 -10 -5 0 -10 5 -10 10 0 6 5 10 10 10 6 0
10 -4 10 -10z m-405 -30 c3 -5 -1 -10 -10 -10 -9 0 -13 5 -10 10 3 6 8 10 10
10 2 0 7 -4 10 -10z m570 0 c3 -5 -1 -10 -10 -10 -9 0 -13 5 -10 10 3 6 8 10
10 10 2 0 7 -4 10 -10z m-560 -120 c-3 -5 -13 -10 -21 -10 -8 0 -14 5 -14 10
0 6 9 10 21 10 11 0 17 -4 14 -10z m565 0 c0 -5 -7 -10 -15 -10 -8 0 -15 5
-15 10 0 6 7 10 15 10 8 0 15 -4 15 -10z m-530 -40 c0 -5 -5 -10 -11 -10 -5 0
-7 5 -4 10 3 6 8 10 11 10 2 0 4 -4 4 -10z m177 -6 c-3 -3 -12 -4 -19 -1 -8 3
-5 6 6 6 11 1 17 -2 13 -5z m5033 -14 c0 -5 -5 -10 -11 -10 -5 0 -7 5 -4 10 3
6 8 10 11 10 2 0 4 -4 4 -10z m30 -24 c0 -3 -4 -8 -10 -11 -5 -3 -10 -1 -10 4
0 6 5 11 10 11 6 0 10 -2 10 -4z m-37 -43 c-7 -3 -13 -10 -13 -16 1 -7 10 -1
20 12 14 16 20 19 20 8 0 -8 3 -24 6 -34 4 -14 4 -15 -4 -4 -12 16 -35 5 -26
-12 4 -7 -2 -3 -13 8 -21 21 -24 45 -8 57 5 4 14 2 20 -4 7 -7 6 -12 -2 -15z
m-5188 -4 c0 -7 -8 -15 -17 -17 -18 -3 -25 18 -11 32 10 10 28 1 28 -15z m125
-99 c0 -5 -5 -10 -11 -10 -5 0 -7 5 -4 10 3 6 8 10 11 10 2 0 4 -4 4 -10z
m-100 -20 c0 -5 -4 -10 -10 -10 -5 0 -10 5 -10 10 0 6 5 10 10 10 6 0 10 -4
10 -10z m300 -15 c0 -8 -4 -15 -9 -15 -13 0 -22 16 -14 24 11 11 23 6 23 -9z
m4890 -40 c0 -30 -4 -55 -9 -55 -5 0 -11 -6 -14 -12 -2 -7 -3 -4 -1 7 2 11 4
41 4 68 0 26 5 47 10 47 6 0 10 -25 10 -55z m-5120 0 c0 -8 -7 -15 -15 -15
-16 0 -20 12 -8 23 11 12 23 8 23 -8z m65 5 c-3 -5 -10 -10 -16 -10 -5 0 -9 5
-9 10 0 6 7 10 16 10 8 0 12 -4 9 -10z m-180 -20 c3 -5 1 -10 -4 -10 -6 0 -11
5 -11 10 0 6 2 10 4 10 3 0 8 -4 11 -10z m95 -30 c0 -5 -7 -10 -15 -10 -8 0
-15 5 -15 10 0 6 7 10 15 10 8 0 15 -4 15 -10z m70 0 c0 -5 -4 -10 -10 -10 -5
0 -10 5 -10 10 0 6 5 10 10 10 6 0 10 -4 10 -10z m430 -175 c0 -8 -9 -15 -20
-15 -11 0 -20 7 -20 15 0 8 9 15 20 15 11 0 20 -7 20 -15z m474 -147 c14 -206
-15 -463 -52 -463 -7 0 -17 -7 -22 -15 -8 -12 -14 -10 -35 15 -13 17 -24 36
-25 43 0 6 -4 12 -9 12 -9 0 -22 37 -27 75 -2 11 -3 75 -4 143 -1 106 1 126
18 150 25 35 128 132 140 132 5 0 12 -42 16 -92z m-534 58 c0 -16 -18 -31 -27
-22 -8 8 5 36 17 36 5 0 10 -6 10 -14z m-5073 -12 c-3 -3 -12 -4 -19 -1 -8 3
-5 6 6 6 11 1 17 -2 13 -5z m1914 -124 c26 -15 24 -23 -11 -39 -34 -14 -64
-10 -95 13 -18 14 -18 15 -2 16 9 0 17 5 17 10 0 13 66 13 91 0z m7870 -79
c12 -11 32 -43 46 -73 47 -96 30 -263 -32 -325 -7 -7 -15 -18 -18 -25 -3 -8
-15 -1 -34 21 -32 36 -63 137 -63 206 0 43 27 142 41 150 5 4 9 17 9 30 0 19
7 29 28 34 2 1 12 -8 23 -18z"/>
<path d="M3358 7833 c7 -3 16 -2 19 1 4 3 -2 6 -13 5 -11 0 -14 -3 -6 -6z"/>
<path d="M4950 7240 c0 -5 7 -10 16 -10 8 0 12 5 9 10 -3 6 -10 10 -16 10 -5
0 -9 -4 -9 -10z"/>
<path d="M5550 6670 c0 -5 5 -10 10 -10 6 0 10 5 10 10 0 6 -4 10 -10 10 -5 0
-10 -4 -10 -10z"/>
<path d="M5924 4855 c0 -49 1 -71 3 -48 2 23 2 64 0 90 -2 26 -3 8 -3 -42z"/>
<path d="M6099 4925 c-11 -36 -12 -525 -1 -525 6 0 12 25 14 56 5 86 -6 492
-13 469z"/>
<path d="M5921 4523 c-1 -75 0 -135 3 -133 9 9 15 259 7 265 -5 3 -10 -57 -10
-132z"/>
<path d="M6509 4108 c-17 -52 -19 -205 -2 -233 9 -15 11 -4 8 60 -2 44 1 109
6 144 5 35 8 65 6 67 -2 2 -10 -15 -18 -38z"/>
<path d="M4986 4078 c-3 -7 -9 -28 -15 -47 -18 -57 -14 -81 13 -81 72 0 129
56 105 103 -7 12 -17 25 -23 29 -18 12 -76 9 -80 -4z"/>
<path d="M6440 3161 c0 -4 -6 -46 -14 -92 -19 -111 -29 -248 -18 -229 20 34
54 330 38 330 -3 0 -6 -4 -6 -9z"/>
<path d="M7383 7145 c0 -22 2 -30 4 -17 2 12 2 30 0 40 -3 9 -5 -1 -4 -23z"/>
<path d="M7584 4276 c-60 -28 -97 -72 -123 -147 l-18 -54 -91 -9 -92 -8 0 -43
c0 -23 7 -59 15 -78 l15 -36 78 5 c42 3 90 10 105 15 21 6 37 4 57 -6 16 -8
49 -15 75 -15 38 0 45 3 45 19 0 25 16 36 24 16 3 -8 10 -15 16 -15 16 0 12
25 -9 51 -10 13 -21 48 -25 77 -4 29 -9 58 -12 65 -3 8 4 25 15 38 18 20 22
22 31 9 14 -22 12 -56 -4 -73 -13 -12 -11 -23 8 -78 13 -35 28 -65 34 -67 13
-4 57 53 77 101 37 90 4 205 -69 238 -55 25 -91 24 -152 -5z m145 -142 c16
-63 8 -65 -17 -5 -19 46 -20 67 -2 56 4 -3 13 -26 19 -51z m-136 -169 c4 -8 2
-17 -3 -20 -6 -4 -10 3 -10 14 0 25 6 27 13 6z"/>
<path d="M9552 6665 c0 -16 2 -22 5 -12 2 9 2 23 0 30 -3 6 -5 -1 -5 -18z"/>
<path d="M9570 6660 c0 -5 5 -10 11 -10 5 0 7 5 4 10 -3 6 -8 10 -11 10 -2 0
-4 -4 -4 -10z"/>
<path d="M2301 3830 c-19 -89 -17 -94 30 -86 23 4 50 11 60 17 24 12 35 54 23
88 -8 22 -16 26 -56 29 l-46 3 -11 -51z"/>
<path d="M1504 3801 c-53 -24 -101 -83 -120 -147 -14 -48 -17 -52 -52 -58 -20
-3 -57 -6 -82 -6 -67 0 -74 -8 -66 -71 8 -61 25 -90 53 -90 53 0 160 14 170
23 8 6 22 4 44 -7 51 -27 144 -17 196 20 90 64 123 188 75 281 -36 71 -130 95
-218 55z"/>
<path d="M8625 3181 c-5 -16 -21 -20 -108 -27 l-102 -9 -33 -69 c-30 -64 -36
-116 -10 -100 5 4 29 8 52 10 22 2 61 5 85 8 25 2 47 10 52 18 5 10 31 18 68
22 l59 7 -10 42 c-24 111 -40 139 -53 98z"/>
<path d="M7290 3234 c-6 -14 -13 -50 -16 -80 -7 -53 -6 -54 19 -54 38 0 106
29 117 51 16 29 12 74 -8 92 -11 10 -36 17 -61 17 -35 0 -43 -4 -51 -26z"/>
<path d="M4565 3038 c-5 -16 -24 -100 -25 -110 0 -5 19 -8 43 -8 70 0 115 57
83 105 -13 20 -25 25 -57 25 -23 0 -42 -5 -44 -12z"/>
<path d="M4310 2968 c0 -7 -7 -58 -15 -113 -16 -114 -19 -198 -6 -175 20 34
46 300 30 300 -5 0 -9 -6 -9 -12z"/>
<path d="M5329 3106 c-75 -26 -142 -103 -154 -175 l-6 -39 -95 -7 c-59 -4 -94
-11 -95 -18 -3 -35 5 -86 17 -115 l14 -34 92 7 c51 4 96 12 100 18 5 8 17 6
43 -6 67 -32 168 -16 223 36 13 12 35 44 49 71 21 41 24 60 21 113 -8 119
-103 187 -209 149z m1 -302 c0 -9 -7 -14 -17 -12 -25 5 -28 28 -4 28 12 0 21
-6 21 -16z m110 1 c0 -8 -9 -15 -20 -15 -11 0 -20 7 -20 15 0 8 9 15 20 15 11
0 20 -7 20 -15z"/>
<path d="M6562 2140 c0 -14 2 -19 5 -12 2 6 2 18 0 25 -3 6 -5 1 -5 -13z"/>
<path d="M8560 8564 c0 -6 7 -19 16 -30 14 -18 14 -18 3 6 -14 31 -19 36 -19
24z"/>
<path d="M8486 8407 c3 -10 9 -15 12 -12 3 3 0 11 -7 18 -10 9 -11 8 -5 -6z"/>
<path d="M9120 7960 c0 -5 15 -10 33 -10 24 0 28 3 17 10 -20 13 -50 13 -50 0z"/>
<path d="M9890 6631 c0 -5 5 -13 10 -16 6 -3 10 -2 10 4 0 5 -4 13 -10 16 -5
3 -10 2 -10 -4z"/>
<path d="M10533 6224 c-7 -7 -13 -19 -13 -26 0 -7 7 -2 16 10 18 26 16 37 -3
16z"/>
<path d="M10770 5586 c0 -2 7 -7 16 -10 8 -3 12 -2 9 4 -6 10 -25 14 -25 6z"/>
</g>
</svg>
